<?xml version="1.0" encoding="UTF-8" standalone="no"?>
<!-- Created with Inkscape (http://www.inkscape.org/) -->

<svg
   xmlns:dc="http://purl.org/dc/elements/1.1/"
   xmlns:cc="http://creativecommons.org/ns#"
   xmlns:rdf="http://www.w3.org/1999/02/22-rdf-syntax-ns#"
   xmlns:svg="http://www.w3.org/2000/svg"
   xmlns="http://www.w3.org/2000/svg"
   xmlns:xlink="http://www.w3.org/1999/xlink"
   xmlns:sodipodi="http://sodipodi.sourceforge.net/DTD/sodipodi-0.dtd"
   xmlns:inkscape="http://www.inkscape.org/namespaces/inkscape"
   width="28.66087mm"
   height="26.458321mm"
   viewBox="0 0 28.66087 26.458321"
   version="1.1"
   id="svg1098"
   inkscape:version="0.92.0 r15299"
   sodipodi:docname="logo-getchat.svg">
  <defs
     id="defs1092">
    <linearGradient
       inkscape:collect="always"
       xlink:href="#linearGradient922"
       id="linearGradient976"
       gradientUnits="userSpaceOnUse"
       gradientTransform="matrix(0.05167643,0,0,0.05167643,306.12811,183.22917)"
       x1="67.984756"
       y1="327.33197"
       x2="237.75999"
       y2="444.198" />
    <linearGradient
       id="linearGradient922"
       inkscape:collect="always">
      <stop
         id="stop918"
         offset="0"
         style="stop-color:#70fff0;stop-opacity:1" />
      <stop
         id="stop920"
         offset="1"
         style="stop-color:#00c8b3;stop-opacity:1" />
    </linearGradient>
    <linearGradient
       inkscape:collect="always"
       xlink:href="#SVGID_10_"
       id="linearGradient980"
       gradientUnits="userSpaceOnUse"
       gradientTransform="matrix(0.05167643,0,0,0.05167643,306.12812,183.22917)"
       x1="205.30099"
       y1="70.630997"
       x2="334.13055"
       y2="199.46056" />
    <linearGradient
       gradientTransform="matrix(10.6667,0,0,-10.6667,679.8889,6577.4248)"
       y2="571.94672"
       x2="-42.239601"
       y1="616.80072"
       x1="-42.239601"
       gradientUnits="userSpaceOnUse"
       id="SVGID_10_">
      <stop
         id="stop5494"
         style="stop-color:#FFBF3F"
         offset="0" />
      <stop
         id="stop5496"
         style="stop-color:#FF6A8F"
         offset="1" />
    </linearGradient>
    <linearGradient
       inkscape:collect="always"
       xlink:href="#linearGradient928"
       id="linearGradient974"
       gradientUnits="userSpaceOnUse"
       gradientTransform="matrix(0.05167643,0,0,0.05167643,306.12811,183.22917)"
       x1="205.30099"
       y1="70.630997"
       x2="464.37701"
       y2="287.10001" />
    <linearGradient
       id="linearGradient928"
       gradientUnits="userSpaceOnUse"
       x1="-42.239601"
       y1="616.80072"
       x2="-42.239601"
       y2="571.94672"
       gradientTransform="matrix(10.6667,0,0,-10.6667,679.8889,6577.4248)">
      <stop
         offset="0"
         style="stop-color:#ff6a8f;stop-opacity:0.58461541"
         id="stop924" />
      <stop
         offset="1"
         style="stop-color:#FF6A8F"
         id="stop926" />
    </linearGradient>
  </defs>
  <sodipodi:namedview
     id="base"
     pagecolor="#ffffff"
     bordercolor="#666666"
     borderopacity="1.0"
     inkscape:pageopacity="0.0"
     inkscape:pageshadow="2"
     inkscape:zoom="3.959798"
     inkscape:cx="-80.425768"
     inkscape:cy="46.739284"
     inkscape:document-units="mm"
     inkscape:current-layer="layer1"
     showgrid="false"
     fit-margin-top="0"
     fit-margin-left="0"
     fit-margin-right="0"
     fit-margin-bottom="0"
     inkscape:window-width="1920"
     inkscape:window-height="1017"
     inkscape:window-x="-8"
     inkscape:window-y="-8"
     inkscape:window-maximized="1" />
  <metadata
     id="metadata1095">
    <rdf:RDF>
      <cc:Work
         rdf:about="">
        <dc:format>image/svg+xml</dc:format>
        <dc:type
           rdf:resource="http://purl.org/dc/dcmitype/StillImage" />
        <dc:title></dc:title>
      </cc:Work>
    </rdf:RDF>
  </metadata>
  <g
     inkscape:label="Layer 1"
     inkscape:groupmode="layer"
     id="layer1"
     transform="translate(-303.92552,-183.22917)">
    <path
       inkscape:connector-curvature="0"
       d="m 318.4147,206.18375 c 0.10712,0 0.21139,0.0434 0.28686,0.11888 0.0755,0.0755 0.11889,0.18015 0.11889,0.28686 0,0.10672 -0.0434,0.2114 -0.11889,0.28687 -0.0755,0.0755 -0.17974,0.11888 -0.28686,0.11888 -0.10671,0 -0.21139,-0.0434 -0.28686,-0.11888 -0.0755,-0.0755 -0.11889,-0.18015 -0.11889,-0.28687 0,-0.10671 0.0434,-0.21139 0.11889,-0.28686 0.0755,-0.0755 0.18015,-0.11888 0.28686,-0.11888 z"
       id="path930"
       style="clip-rule:evenodd;fill-rule:evenodd;stroke-width:0.04057461;stroke-linecap:round;stroke-linejoin:round;stroke-miterlimit:1.5" />
    <path
       inkscape:connector-curvature="0"
       style="clip-rule:evenodd;fill:url(#linearGradient974);fill-opacity:1;fill-rule:evenodd;stroke-width:0.05167643;stroke-linecap:round;stroke-linejoin:round;stroke-miterlimit:1.5"
       d="m 330.56956,197.72637 -0.0299,0.0299 c 0.96603,-1.43335 1.53004,-3.16017 1.53004,-5.01876 0,-4.96595 -4.02571,-8.99165 -8.99166,-8.99165 -4.96595,0 -8.99165,4.0257 -8.99165,8.99165 0,4.96595 4.0257,8.99165 8.99165,8.99165 1.94066,0 3.73771,-0.61485 5.20702,-1.66026 l 3.13754,0.84067 z"
       id="path932" />
    <path
       id="path978"
       d="m 330.56956,197.72637 -0.0299,0.0299 c 0.96603,-1.43335 1.53004,-3.16017 1.53004,-5.01876 0,-4.96595 -4.02571,-8.99165 -8.99166,-8.99165 -4.96595,0 -8.99165,4.0257 -8.99165,8.99165 0,4.96595 4.0257,8.99165 8.99165,8.99165 1.94066,0 3.73771,-0.61485 5.20702,-1.66026 l 3.13754,0.84067 z"
       style="clip-rule:evenodd;fill:url(#linearGradient980);fill-opacity:1;fill-rule:evenodd;stroke-width:0.05167643;stroke-linecap:round;stroke-linejoin:round;stroke-miterlimit:1.5"
       inkscape:connector-curvature="0" />
    <path
       inkscape:connector-curvature="0"
       style="clip-rule:evenodd;fill:url(#linearGradient976);fill-opacity:1;fill-rule:evenodd;stroke-width:0.05167643;stroke-linecap:round;stroke-linejoin:round;stroke-miterlimit:1.5"
       d="m 313.25951,195.94168 c -3.65311,0 -6.61453,2.96147 -6.61453,6.61453 0,1.43066 0.45429,2.75513 1.22633,3.83728 l -0.61479,2.29438 2.33634,-0.626 c 1.0495,0.70031 2.31035,1.10887 3.6667,1.10887 3.65301,-5e-5 6.61448,-2.96153 6.61448,-6.61459 0,-3.65305 -2.96142,-6.61447 -6.61453,-6.61447 z"
       id="path934" />
    <path
       inkscape:connector-curvature="0"
       style="clip-rule:evenodd;fill:#ffffff;fill-rule:evenodd;stroke-width:0.05167643;stroke-linecap:round;stroke-linejoin:round;stroke-miterlimit:1.5"
       d="m 320.4785,194.35485 c 0,1.45345 1.17827,2.63172 2.63173,2.63172 v 0 c 1.45345,0 2.63172,-1.17827 2.63172,-2.63172 z"
       id="path936" />
    <path
       id="path938"
       d="m 326.62717,191.28356 c 0.0223,-0.0137 0.0445,-0.0275 0.0668,-0.0412"
       style="clip-rule:evenodd;fill:#ffdcdc;fill-rule:evenodd;stroke-width:0.05167643;stroke-linecap:round;stroke-linejoin:round;stroke-miterlimit:1.5"
       inkscape:connector-curvature="0" />
    <path
       id="path940"
       d="m 319.52641,191.28356 c 0.0223,-0.0137 0.0445,-0.0275 0.0668,-0.0412"
       style="clip-rule:evenodd;fill:#ffdcdc;fill-rule:evenodd;stroke-width:0.05167643;stroke-linecap:round;stroke-linejoin:round;stroke-miterlimit:1.5"
       inkscape:connector-curvature="0" />
    <path
       inkscape:connector-curvature="0"
       d="m 325.7419,193.83808 h -5.2634 c -0.28541,0 -0.51676,0.23136 -0.51676,0.51677 0,1.73607 1.41242,3.14849 3.14849,3.14849 1.73606,0 3.14848,-1.41242 3.14848,-3.14849 -5e-5,-0.28541 -0.23145,-0.51677 -0.51681,-0.51677 z m -2.63167,2.63168 c -0.98795,0 -1.81989,-0.681 -2.05109,-1.5982 h 4.10223 c -0.23131,0.9172 -1.06325,1.5982 -2.05114,1.5982 z"
       id="path942"
       style="clip-rule:evenodd;fill:#4e3c88;fill-opacity:1;fill-rule:evenodd;stroke-width:0.05167643;stroke-linecap:round;stroke-linejoin:round;stroke-miterlimit:1.5" />
    <path
       inkscape:connector-curvature="0"
       d="m 316.73733,186.87913 c 0.13591,0 0.26924,-0.0548 0.36536,-0.1509 0.0961,-0.0961 0.15141,-0.22944 0.15141,-0.36535 0,-0.13643 -0.0553,-0.26923 -0.15141,-0.36587 -0.0961,-0.0961 -0.22945,-0.15089 -0.36536,-0.15089 -0.13642,0 -0.26923,0.0548 -0.36535,0.15089 -0.0966,0.0966 -0.15141,0.22944 -0.15141,0.36587 0,0.13591 0.0548,0.26923 0.15141,0.36535 0.0961,0.0961 0.22888,0.1509 0.36535,0.1509 z"
       id="path944"
       style="clip-rule:evenodd;fill:#4e3c88;fill-opacity:1;fill-rule:evenodd;stroke-width:0.05167643;stroke-linecap:round;stroke-linejoin:round;stroke-miterlimit:1.5" />
    <path
       inkscape:connector-curvature="0"
       id="path946"
       d="m 323.07797,183.74588 c -0.37115,0 -0.73685,0.0229 -1.0962,0.0666 4.44886,0.54078 7.89549,4.33015 7.89549,8.92498 0,1.85859 -0.56407,3.58542 -1.53011,5.01877 l 0.03,-0.0299 0.6834,2.55021 2.36208,0.63293 -0.85307,-3.18314 -0.0299,0.0299 c 0.96603,-1.43335 1.52999,-3.16018 1.52999,-5.01877 0,-4.96595 -4.02575,-8.9916 -8.9917,-8.9916 z m 3.0146,16.32299 c -1.18807,0.84531 -2.59041,1.40893 -4.10969,1.5938 0.359,0.0436 0.72433,0.0665 1.09509,0.0665 1.66702,0 3.22792,-0.45402 4.5663,-1.24457 z"
       style="clip-rule:evenodd;fill:#ff5053;fill-opacity:1;fill-rule:evenodd;stroke-width:0.05167643;stroke-linecap:round;stroke-linejoin:round;stroke-miterlimit:1.5" />
    <ellipse
       id="ellipse948"
       style="clip-rule:evenodd;fill:#4e3c88;fill-opacity:1;fill-rule:evenodd;stroke-width:0.07231267;stroke-linecap:round;stroke-linejoin:round;stroke-miterlimit:1.5"
       ry="0.64751548"
       rx="0.64751512"
       cy="201.47141"
       cx="310.71207" />
    <ellipse
       id="ellipse950"
       style="clip-rule:evenodd;fill:#4e3c88;fill-opacity:1;fill-rule:evenodd;stroke-width:0.07231267;stroke-linecap:round;stroke-linejoin:round;stroke-miterlimit:1.5"
       ry="0.64751548"
       rx="0.64751512"
       cy="201.47141"
       cx="315.65518" />
    <path
       inkscape:connector-curvature="0"
       id="path952"
       style="clip-rule:evenodd;fill:#4e3c88;fill-opacity:1;fill-rule:evenodd;stroke-width:0.09119365;stroke-linecap:round;stroke-linejoin:round;stroke-miterlimit:1.5"
       d="m 315.42011,203.79485 0.0256,0.003 0.0254,0.004 0.025,0.006 0.0246,0.008 0.024,0.009 0.0234,0.0108 0.0226,0.0124 0.0218,0.0138 0.0209,0.0153 0.0197,0.0165 0.0187,0.0178 0.0174,0.0189 0.0162,0.0201 0.0148,0.0212 0.0134,0.022 0.0119,0.0228 0.0104,0.0236 0.009,0.0242 0.007,0.0248 0.006,0.0251 0.004,0.0255 0.002,0.0256 5.5e-4,0.0258 -0.001,0.0258 -0.003,0.0256 -0.004,0.0254 -0.006,0.025 -0.008,0.0246 -0.009,0.024 -0.0109,0.0234 -0.0123,0.0226 -0.0138,0.0217 -0.0152,0.0208 -0.0165,0.0198 -0.0178,0.0187 -0.019,0.0175 -0.0201,0.0161 -0.029,0.0218 -0.03,0.0223 -0.03,0.0219 -0.03,0.0216 -0.03,0.0213 -0.0299,0.0209 -0.0299,0.0206 -0.0299,0.0202 -0.0299,0.02 -0.0298,0.0197 -0.0298,0.0193 -0.0297,0.0189 -0.0297,0.0187 -0.0297,0.0184 -0.0296,0.018 -0.0296,0.0178 -0.0296,0.0175 -0.0295,0.0171 -0.0295,0.0168 -0.0295,0.0165 -0.0294,0.0163 -0.0294,0.0159 -0.0293,0.0155 -0.0293,0.0153 -0.0292,0.015 -0.0292,0.0147 -0.0292,0.0144 -0.0292,0.014 -0.029,0.0139 -0.0291,0.0135 -0.0291,0.0132 -0.029,0.013 -0.029,0.0127 -0.0289,0.0124 -0.0288,0.0121 -0.0288,0.0117 -0.0288,0.0115 -0.0287,0.0113 -0.0286,0.0109 -0.0286,0.0107 -0.0285,0.0104 -0.0285,0.0101 -0.0284,0.01 -0.0283,0.01 -0.0282,0.009 -0.0283,0.009 -0.0282,0.009 -0.0282,0.009 -0.0281,0.008 -0.028,0.008 -0.028,0.008 -0.0279,0.007 -0.0278,0.007 -0.0277,0.007 -0.0277,0.007 -0.0276,0.006 -0.0275,0.006 -0.0275,0.006 -0.0273,0.006 -0.0273,0.006 -0.0273,0.005 -0.0272,0.005 -0.0272,0.005 -0.027,0.005 -0.027,0.004 -0.0268,0.004 -0.0268,0.004 -0.0267,0.004 -0.0266,0.003 -0.0265,0.003 -0.0264,0.003 -0.0265,0.003 -0.0263,0.003 -0.0262,0.002 -0.0261,0.002 -0.0261,0.002 -0.0259,0.002 -0.0258,0.001 -0.0257,0.001 -0.0257,0.001 -0.0256,9.3e-4 -0.0255,7.1e-4 -0.0254,5.9e-4 -0.0253,3.9e-4 -0.0252,8e-5 h -0.025 l -0.025,-1.6e-4 -0.0248,-4.7e-4 -0.0248,-5.9e-4 -0.0247,-7.1e-4 -0.0246,-9.3e-4 -0.0245,-0.001 -0.0244,-0.001 -0.0242,-0.001 -0.0242,-0.002 -0.024,-0.002 -0.0239,-0.002 -0.0238,-0.002 -0.0237,-0.002 -0.0236,-0.002 -0.0235,-0.003 -0.0234,-0.003 -0.0233,-0.003 -0.0231,-0.003 -0.023,-0.003 -0.0229,-0.003 -0.0228,-0.003 -0.0228,-0.004 -0.0225,-0.004 -0.0225,-0.004 -0.0223,-0.004 -0.0222,-0.004 -0.0221,-0.004 -0.0219,-0.004 -0.0219,-0.005 -0.0217,-0.005 -0.0216,-0.005 -0.0215,-0.005 -0.0214,-0.005 -0.0212,-0.005 -0.021,-0.005 -0.0211,-0.005 -0.0209,-0.005 -0.0207,-0.006 -0.0206,-0.006 -0.0205,-0.006 -0.0203,-0.006 -0.0202,-0.006 -0.0201,-0.006 -0.02,-0.006 -0.0199,-0.006 -0.0197,-0.006 -0.0196,-0.006 -0.0194,-0.006 -0.0194,-0.006 -0.0192,-0.007 -0.0191,-0.007 -0.0189,-0.007 -0.0188,-0.007 -0.0186,-0.007 -0.0185,-0.007 -0.0184,-0.007 -0.0183,-0.007 -0.0182,-0.007 -0.018,-0.007 -0.0178,-0.007 -0.0177,-0.007 -0.0175,-0.007 -0.0174,-0.007 -0.0174,-0.007 -0.0171,-0.007 -0.0171,-0.007 -0.0168,-0.008 -0.0168,-0.008 -0.0165,-0.008 -0.0165,-0.008 -0.0164,-0.008 -0.0162,-0.008 -0.016,-0.008 -0.0159,-0.008 -0.0158,-0.008 -0.0156,-0.008 -0.0155,-0.008 -0.0154,-0.008 -0.0152,-0.008 -0.015,-0.008 -0.0149,-0.008 -0.0148,-0.008 -0.0146,-0.008 -0.0145,-0.008 -0.0144,-0.008 -0.0142,-0.008 -0.014,-0.008 -0.0142,-0.008 -0.027,-0.0154 -0.0268,-0.0156 -0.0262,-0.0156 -0.0256,-0.0155 -0.025,-0.0154 -0.0244,-0.0153 -0.0238,-0.0152 -0.0232,-0.0151 -0.0226,-0.0149 -0.022,-0.0147 -0.0213,-0.0145 -0.0208,-0.0143 -0.0202,-0.014 -0.0195,-0.0139 -0.0189,-0.0136 -0.0183,-0.0133 -0.0176,-0.0131 -0.017,-0.0128 -0.0164,-0.0124 -0.0157,-0.0121 -0.015,-0.0117 -0.0145,-0.0115 -0.0138,-0.011 -0.0131,-0.0106 -0.0125,-0.0102 -0.0119,-0.01 -0.0112,-0.009 -0.0105,-0.009 -0.0103,-0.009 -0.0173,-0.015 -0.0149,-0.0133 -0.0122,-0.011 -0.01,-0.009 -0.007,-0.007 -0.0182,-0.0183 -0.0169,-0.0194 -0.0156,-0.0205 -0.0143,-0.0214 -0.0128,-0.0224 -0.0113,-0.0232 -0.01,-0.0238 -0.008,-0.0244 -0.007,-0.025 -0.005,-0.0252 -0.003,-0.0256 -0.002,-0.0257 8e-5,-0.0258 0.002,-0.0258 0.004,-0.0255 0.005,-0.0252 0.007,-0.0249 0.008,-0.0244 0.01,-0.0239 0.0115,-0.023 0.0129,-0.0223 0.0144,-0.0214 0.0157,-0.0203 0.0171,-0.0194 0.0183,-0.0181 0.0194,-0.0169 0.0205,-0.0156 0.0215,-0.0143 0.0223,-0.0127 0.0232,-0.0114 0.0238,-0.01 0.0244,-0.008 0.025,-0.007 0.0253,-0.005 0.0255,-0.003 0.0257,-0.002 0.0258,8e-5 0.0256,0.002 0.0256,0.003 0.0253,0.005 0.0249,0.007 0.0244,0.008 0.0238,0.01 0.0231,0.0115 0.0223,0.0129 0.0213,0.0144 0.0204,0.0158 0.0193,0.017 0.004,0.004 0.004,0.003 0.006,0.006 0.009,0.008 0.0119,0.0103 0.006,0.005 0.007,0.006 0.008,0.007 0.008,0.007 0.009,0.007 0.01,0.008 0.0102,0.008 0.0108,0.009 0.0113,0.009 0.0119,0.009 0.0125,0.009 0.013,0.01 0.0136,0.0101 0.0141,0.0103 0.0147,0.0106 0.0152,0.0107 0.0157,0.0111 0.0163,0.0112 0.0167,0.0114 0.0173,0.0115 0.0178,0.0117 0.0184,0.0119 0.0188,0.012 0.0193,0.0121 0.0198,0.0122 0.0203,0.0123 0.0208,0.0124 0.0212,0.0124 0.0221,0.0127 0.0106,0.006 0.0112,0.006 0.0113,0.006 0.0113,0.006 0.0115,0.006 0.0116,0.006 0.0118,0.006 0.0118,0.006 0.012,0.006 0.012,0.006 0.0121,0.006 0.0123,0.006 0.0124,0.006 0.0125,0.006 0.0126,0.006 0.0127,0.006 0.0129,0.006 0.0129,0.006 0.013,0.006 0.0131,0.006 0.0133,0.006 0.0133,0.006 0.027,0.0118 0.0137,0.006 0.0138,0.006 0.0139,0.006 0.0139,0.006 0.0141,0.006 0.0141,0.006 0.0142,0.006 0.0144,0.006 0.0144,0.005 0.0146,0.005 0.0147,0.005 0.0148,0.005 0.0148,0.005 0.0149,0.005 0.015,0.005 0.0151,0.005 0.0152,0.005 0.0153,0.005 0.0154,0.005 0.0155,0.005 0.0156,0.005 0.0156,0.005 0.0158,0.005 0.0158,0.004 0.0159,0.005 0.016,0.004 0.0161,0.004 0.0162,0.004 0.0163,0.004 0.0164,0.004 0.0165,0.004 0.0165,0.004 0.0166,0.004 0.0167,0.004 0.0167,0.004 0.0169,0.004 0.017,0.003 0.017,0.003 0.0172,0.003 0.0172,0.003 0.0173,0.003 0.0174,0.003 0.0175,0.003 0.0174,0.003 0.0176,0.003 0.0177,0.002 0.0178,0.002 0.0178,0.002 0.018,0.002 0.018,0.002 0.0182,0.002 0.0182,0.002 0.0183,0.002 0.0184,10e-4 0.0183,0.001 0.0185,0.001 0.0185,0.001 0.0187,0.001 0.0187,8.2e-4 0.0188,7.2e-4 0.0189,5.8e-4 0.019,4.8e-4 0.0191,2.4e-4 0.0191,1.6e-4 h 0.0193 l 0.0192,-8e-5 0.0193,-3.2e-4 0.0194,-4e-4 0.0195,-5.8e-4 0.0196,-7.1e-4 0.0196,-9.3e-4 0.0198,-0.001 0.0198,-0.001 0.0199,-0.001 0.02,-10e-4 0.0201,-0.002 0.0202,-0.002 0.0202,-0.002 0.0203,-0.002 0.0203,-0.002 0.0204,-0.002 0.0205,-0.003 0.0206,-0.003 0.0207,-0.003 0.0208,-0.003 0.0208,-0.003 0.021,-0.004 0.021,-0.004 0.0211,-0.004 0.0212,-0.004 0.0212,-0.004 0.0213,-0.005 0.0213,-0.005 0.0215,-0.005 0.0215,-0.005 0.0217,-0.005 0.0217,-0.006 0.0218,-0.006 0.0219,-0.006 0.0219,-0.006 0.022,-0.006 0.0221,-0.007 0.0221,-0.007 0.0223,-0.007 0.0223,-0.007 0.0224,-0.007 0.0225,-0.008 0.0226,-0.008 0.0226,-0.008 0.0228,-0.008 0.0229,-0.008 0.0229,-0.009 0.0229,-0.009 0.0231,-0.009 0.0231,-0.01 0.0232,-0.01 0.0233,-0.01 0.0233,-0.0102 0.0235,-0.0105 0.0235,-0.0107 0.0237,-0.0109 0.0237,-0.0113 0.0238,-0.0115 0.0238,-0.0118 0.0239,-0.012 0.024,-0.0123 0.0241,-0.0126 0.0241,-0.0128 0.0242,-0.0131 0.0244,-0.0134 0.0244,-0.0137 0.0245,-0.014 0.0246,-0.0142 0.0246,-0.0145 0.0247,-0.0148 0.0247,-0.0152 0.0248,-0.0153 0.0249,-0.0157 0.025,-0.016 0.0251,-0.0163 0.0251,-0.0165 0.0253,-0.0169 0.0253,-0.0172 0.0254,-0.0175 0.0255,-0.0177 0.0255,-0.0182 0.0256,-0.0184 0.0256,-0.0188 0.0257,-0.019 0.0268,-0.0202 0.0211,-0.0148 0.022,-0.0134 0.0229,-0.0119 0.0237,-0.0104 0.0242,-0.009 0.0247,-0.007 0.0251,-0.006 0.0256,-0.004 0.0256,-0.002 0.0258,-6.3e-4 z" />
    <ellipse
       cx="319.93884"
       cy="190.77438"
       rx="0.80254441"
       ry="0.80254477"
       style="clip-rule:evenodd;fill:#4e3c88;fill-opacity:1;fill-rule:evenodd;stroke-width:0.08962588;stroke-linecap:round;stroke-linejoin:round;stroke-miterlimit:1.5"
       id="ellipse954" />
    <ellipse
       cx="326.06543"
       cy="190.77438"
       rx="0.80254441"
       ry="0.80254477"
       style="clip-rule:evenodd;fill:#4e3c88;fill-opacity:1;fill-rule:evenodd;stroke-width:0.08962588;stroke-linecap:round;stroke-linejoin:round;stroke-miterlimit:1.5"
       id="ellipse956" />
    <path
       id="path958"
       d="m 313.25952,195.94164 c -0.27215,0 -0.54038,0.0168 -0.80391,0.0488 3.27391,0.39671 5.81067,3.18482 5.81067,6.56573 0,3.38025 -2.53584,6.16802 -5.80875,6.56564 0.26298,0.0318 0.53042,0.0489 0.80199,0.0489 3.653,-5e-5 6.61448,-2.96153 6.61448,-6.61459 0,-3.65305 -2.96137,-6.61448 -6.61448,-6.61448 z m -5.27443,12.12024 -0.60427,0.1619 -0.12435,0.46408 1.22298,-0.32762 c -0.16924,-0.0927 -0.33451,-0.19169 -0.49436,-0.29836 z"
       style="clip-rule:evenodd;fill:#00b3a1;fill-opacity:1;fill-rule:evenodd;stroke-width:0.05167643;stroke-linecap:round;stroke-linejoin:round;stroke-miterlimit:1.5"
       inkscape:connector-curvature="0" />
    <path
       style="clip-rule:evenodd;fill:#4e3c88;fill-opacity:1;fill-rule:evenodd;stroke-width:0.05167643;stroke-linecap:round;stroke-linejoin:round;stroke-miterlimit:1.5"
       id="path960"
       d="m 331.12539,197.80409 c 0.95674,-1.51618 1.461,-3.26161 1.461,-5.06651 0,-5.24293 -4.26548,-9.50841 -9.50842,-9.50841 -1.75617,0 -3.47203,0.48271 -4.96197,1.39594 -0.24334,0.14913 -0.31972,0.46725 -0.17053,0.7106 0.14909,0.24329 0.46721,0.31972 0.7106,0.17053 1.32736,-0.81354 2.85647,-1.24354 4.42196,-1.24354 4.67305,0 8.47488,3.80178 8.47488,8.47488 0,1.69483 -0.49852,3.33044 -1.44177,4.72995 -0.12511,0.18562 -0.11441,0.4256 0.0143,0.59794 l 0.56626,2.11336 -2.27292,-0.60906 c -0.14888,-0.0399 -0.30779,-0.0113 -0.43336,0.0781 -1.43857,1.0236 -3.13552,1.5646 -4.9074,1.5646 -1.0094,0 -1.99668,-0.17632 -2.93564,-0.52322 -0.66099,-2.43422 -2.58165,-4.35493 -5.01587,-5.01587 -0.34695,-0.93896 -0.52338,-1.92608 -0.52338,-2.93579 0,-1.58285 0.43899,-3.12647 1.26954,-4.46407 0.15053,-0.24246 0.076,-0.56105 -0.16645,-0.71163 -0.24236,-0.15054 -0.56105,-0.0761 -0.71164,0.16645 -0.93229,1.5014 -1.42503,3.23355 -1.42503,5.0092 0,0.9295 0.13343,1.84221 0.39647,2.72231 -0.2325,-0.0229 -0.46814,-0.035 -0.70653,-0.035 -3.93221,0 -7.13129,3.19913 -7.13129,7.13129 0,1.41124 0.40804,2.76593 1.18225,3.93372 l -0.55304,2.06421 c -0.0478,0.17834 0.003,0.36861 0.13374,0.4992 0.13054,0.13053 0.32076,0.18149 0.49914,0.13374 l 2.11538,-0.56684 c 1.12654,0.69897 2.41928,1.06732 3.75382,1.06732 1.35832,0 2.67953,-0.38344 3.8208,-1.10887 0.24087,-0.15312 0.31197,-0.47248 0.15891,-0.71334 -0.15312,-0.24086 -0.47258,-0.31197 -0.71334,-0.15891 -0.97534,0.61997 -2.10473,0.94759 -3.26637,0.94759 -1.20922,0 -2.37799,-0.35336 -3.37984,-1.02195 -0.12366,-0.0825 -0.27688,-0.10785 -0.4206,-0.0693 l -1.47174,0.39435 0.38313,-1.42984 c 0.0399,-0.14909 0.0112,-0.30825 -0.0785,-0.43387 -0.73943,-1.03643 -1.13026,-2.25956 -1.13026,-3.53721 0,-3.36232 2.73549,-6.09776 6.09776,-6.09776 3.36228,0 6.09782,2.73549 6.09782,6.09782 0,0.71804 -0.12345,1.42079 -0.36695,2.08876 -0.0978,0.2681 0.0404,0.56472 0.30851,0.66249 0.26809,0.0977 0.56477,-0.0404 0.66249,-0.30851 0.28499,-0.78171 0.42948,-1.60357 0.42948,-2.44274 0,-0.23839 -0.012,-0.47398 -0.0349,-0.70642 0.88015,0.26298 1.79296,0.3962 2.72216,0.3962 1.90556,0 3.73414,-0.5579 5.30438,-1.61597 l 2.90638,0.77876 c 0.17844,0.0478 0.36861,-0.003 0.4992,-0.13374 0.13053,-0.13053 0.18153,-0.3208 0.13373,-0.49919 z"
       inkscape:connector-curvature="0" />
    <path
       style="clip-rule:evenodd;fill:#4e3c88;fill-opacity:1;fill-rule:evenodd;stroke-width:0.05167643;stroke-linecap:round;stroke-linejoin:round;stroke-miterlimit:1.5"
       id="path962"
       d="m 318.41469,206.18374 c -0.13642,0 -0.26923,0.0553 -0.36535,0.15141 -0.0961,0.0961 -0.15141,0.22944 -0.15141,0.36535 0,0.13591 0.0553,0.26924 0.15141,0.36535 0.0961,0.0961 0.22893,0.15142 0.36535,0.15142 0.13591,0 0.26924,-0.0553 0.36536,-0.15142 0.0961,-0.0961 0.15141,-0.22944 0.15141,-0.36535 0,-0.13591 -0.0553,-0.26923 -0.15141,-0.36535 -0.0961,-0.0961 -0.22945,-0.15141 -0.36536,-0.15141 z"
       inkscape:connector-curvature="0" />
    <path
       id="path964"
       d="m 306.63799,195.11146 c -0.51064,-0.33714 -0.83866,-0.72359 -0.97506,-1.1487 -0.85944,-0.36493 -1.41423,-1.21894 -1.41423,-2.17865 0,-1.29885 1.02354,-2.35557 2.28174,-2.35557 h 2.90394 c 1.25815,0 2.28174,1.05672 2.28174,2.35557 0,1.29884 -1.02354,2.35551 -2.28174,2.35551 h -2.25187 c -0.0194,0.19438 -0.0115,0.39673 0.0233,0.6018 l 0.10438,0.61557 c 0.0144,0.0848 -0.0793,0.14585 -0.15106,0.0985 z"
       style="clip-rule:evenodd;fill:#ffbc41;fill-opacity:1;fill-rule:evenodd;stroke-width:0.04608271;stroke-linecap:round;stroke-linejoin:round;stroke-miterlimit:1.5"
       inkscape:connector-curvature="0" />
    <path
       id="path966"
       d="m 311.71608,191.78415 c 0,-1.29884 -1.02355,-2.35556 -2.28174,-2.35556 h -2.90395 c -0.32751,0 -0.6388,0.0722 -0.92059,0.20101 0.12124,1.95004 1.77773,3.47326 3.7521,3.47326 h 1.96215 c 0.24737,-0.37655 0.39203,-0.83055 0.39203,-1.31871 z"
       style="clip-rule:evenodd;fill:#ff9467;fill-opacity:1;fill-rule:evenodd;stroke-width:0.04608271;stroke-linecap:round;stroke-linejoin:round;stroke-miterlimit:1.5"
       inkscape:connector-curvature="0" />
    <path
       id="path968"
       d="m 312.62492,193.43308 c 0.0727,-0.31285 0.0939,-0.61995 0.0632,-0.91303 h -2.81939 c -1.58547,0 -2.90855,-1.25903 -2.9327,-2.84437 -0.0246,-1.61354 1.28082,-2.93404 2.88883,-2.93404 h 3.64459 c 1.58884,0 2.91082,1.26576 2.92943,2.85451 0.014,1.19234 -0.69267,2.25676 -1.79335,2.70818 -0.23696,0.71751 -0.91101,1.22903 -1.43608,1.53225 l -0.54092,0.31235 c -0.0745,0.043 -0.16437,-0.0236 -0.14493,-0.10737 z"
       style="clip-rule:evenodd;fill:#70fff0;fill-opacity:1;fill-rule:evenodd;stroke-width:0.04608271;stroke-linecap:round;stroke-linejoin:round;stroke-miterlimit:1.5"
       inkscape:connector-curvature="0" />
    <path
       id="path970"
       d="m 309.29747,190.46052 c -0.0246,-1.61359 1.28082,-2.93404 2.88883,-2.93404 h 3.28621 c -0.52663,-0.4871 -1.23327,-0.78484 -2.00312,-0.78484 h -3.64459 c -1.60801,0 -2.91344,1.3205 -2.88884,2.93404 0.0242,1.5853 1.34723,2.84437 2.93271,2.84437 h 0.35622 c -0.55843,-0.51585 -0.91493,-1.24428 -0.92742,-2.05953 z"
       style="clip-rule:evenodd;fill:#34e2cf;fill-opacity:1;fill-rule:evenodd;stroke-width:0.04608271;stroke-linecap:round;stroke-linejoin:round;stroke-miterlimit:1.5"
       inkscape:connector-curvature="0" />
    <path
       style="clip-rule:evenodd;fill:#4e3c88;fill-opacity:1;fill-rule:evenodd;stroke-width:0.04608271;stroke-linecap:round;stroke-linejoin:round;stroke-miterlimit:1.5"
       id="path972"
       d="m 313.50989,186.41837 h -3.68505 c -1.59234,0 -2.91712,1.16479 -3.16869,2.68699 h -0.12571 c -1.43636,0 -2.60492,1.2017 -2.60492,2.67879 0,1.0406 0.57617,1.97253 1.48064,2.41649 0.44456,1.07686 1.8316,1.59335 1.89303,1.6157 0.0387,0.0142 0.0788,0.021 0.11852,0.021 0.0947,0 0.18737,-0.0389 0.25415,-0.11101 0.0948,-0.10231 0.11889,-0.25148 0.0612,-0.37843 -0.1394,-0.30701 -0.21778,-0.6035 -0.23437,-0.88498 h 1.93565 c 1.07064,0 1.99211,-0.66787 2.39211,-1.61962 h 0.55138 c -0.01,0.37922 -0.11263,0.78004 -0.30746,1.19571 -0.0592,0.12636 -0.0368,0.27599 0.0568,0.3794 0.0669,0.0738 0.16069,0.11387 0.25677,0.11387 0.0386,0 0.0775,-0.006 0.11521,-0.0198 0.0769,-0.0271 1.82506,-0.65756 2.36155,-1.96695 1.13603,-0.52548 1.8616,-1.65303 1.8616,-2.91468 0,-1.77138 -1.44109,-3.21248 -3.21247,-3.21248 z m 0.94686,5.54767 c -0.0938,0.0381 -0.16714,0.11396 -0.19801,0.21037 -0.19433,0.60672 -0.7859,1.05838 -1.27396,1.34022 0.0839,-0.36101 0.10691,-0.71414 0.0684,-1.05612 -0.0198,-0.17599 -0.16728,-0.30986 -0.34437,-0.30986 h -2.88395 c -0.33161,0 -0.6482,-0.0648 -0.93838,-0.18189 -0.12848,-0.0518 -0.27525,-0.0236 -0.37323,0.0744 l -0.005,0.005 c -0.17414,0.17414 -0.11327,0.46893 0.11503,0.56151 0.37128,0.15051 0.77681,0.23364 1.20146,0.23364 h 1.22599 c -0.33912,0.55655 -0.93682,0.927 -1.61654,0.927 h -2.27266 c -0.17557,0 -0.3246,0.13148 -0.34396,0.30599 -0.0262,0.23659 -0.0182,0.47936 0.0238,0.72696 -0.33617,-0.22194 -0.69502,-0.54263 -0.82691,-0.95327 -0.032,-0.0996 -0.10258,-0.18322 -0.19908,-0.22364 -0.72746,-0.30493 -1.19745,-1.02806 -1.19745,-1.84211 0,-1.09515 0.85782,-1.98616 1.91234,-1.98616 h 0.0864 c 0.0187,0.36198 0.0977,0.7082 0.22705,1.02898 0.0924,0.22907 0.38737,0.29106 0.56202,0.1164 0.002,-0.002 0.003,-0.003 0.005,-0.005 0.0976,-0.0976 0.12636,-0.24373 0.0749,-0.37175 -0.12294,-0.30575 -0.18792,-0.64082 -0.18022,-0.99184 0.0303,-1.37543 1.17911,-2.46367 2.55487,-2.46367 h 3.60703 c 1.39054,0 2.56657,1.13751 2.5622,2.52801 -0.003,1.02732 -0.61995,1.94012 -1.57295,2.32699 z"
       inkscape:connector-curvature="0" />
  </g>
</svg>
