<?xml version="1.0" encoding="UTF-8" standalone="no"?>
<!-- Created with Inkscape (http://www.inkscape.org/) -->

<svg
   xmlns:dc="http://purl.org/dc/elements/1.1/"
   xmlns:cc="http://creativecommons.org/ns#"
   xmlns:rdf="http://www.w3.org/1999/02/22-rdf-syntax-ns#"
   xmlns:svg="http://www.w3.org/2000/svg"
   xmlns="http://www.w3.org/2000/svg"
   xmlns:sodipodi="http://sodipodi.sourceforge.net/DTD/sodipodi-0.dtd"
   xmlns:inkscape="http://www.inkscape.org/namespaces/inkscape"
   width="8.6178436mm"
   height="40mm"
   viewBox="0 0 8.6178436 40.000001"
   version="1.1"
   id="svg5165"
   inkscape:version="0.92.0 r15299"
   sodipodi:docname="sprite-chat.svg">
  <defs
     id="defs5159" />
  <sodipodi:namedview
     id="base"
     pagecolor="#ffffff"
     bordercolor="#666666"
     borderopacity="1.0"
     inkscape:pageopacity="0.0"
     inkscape:pageshadow="2"
     inkscape:zoom="1.9869693"
     inkscape:cx="-137.82921"
     inkscape:cy="40.644113"
     inkscape:document-units="mm"
     inkscape:current-layer="layer1"
     showgrid="false"
     fit-margin-top="0"
     fit-margin-left="0"
     fit-margin-right="0"
     fit-margin-bottom="0"
     inkscape:window-width="1920"
     inkscape:window-height="1017"
     inkscape:window-x="-8"
     inkscape:window-y="-8"
     inkscape:window-maximized="1" />
  <metadata
     id="metadata5162">
    <rdf:RDF>
      <cc:Work
         rdf:about="">
        <dc:format>image/svg+xml</dc:format>
        <dc:type
           rdf:resource="http://purl.org/dc/dcmitype/StillImage" />
        <dc:title></dc:title>
      </cc:Work>
    </rdf:RDF>
  </metadata>
  <g
     inkscape:label="Layer 1"
     inkscape:groupmode="layer"
     id="layer1"
     transform="translate(-222.47679,-66.488565)">
    <g
       transform="translate(-32.97211,-141.25811)"
       id="g5110"
       style="fill:#ffffff">
      <g
         style="fill:#ffffff"
         transform="matrix(0.01684426,0,0,0.01684426,255.4489,217.00764)"
         id="g5034">
        <g
           style="fill:#ffffff"
           id="g5002">
          <g
             style="fill:#ffffff"
             id="g5000">
            <path
               style="fill:#ffffff"
               inkscape:connector-curvature="0"
               d="m 301.923,327.602 c 30.93,-13.038 55.34,-30.785 73.228,-53.248 17.891,-22.458 26.837,-46.915 26.837,-73.372 0,-26.458 -8.946,-50.914 -26.837,-73.376 C 357.263,105.147 332.853,87.398 301.923,74.357 270.993,61.318 237.352,54.801 200.995,54.801 164.641,54.801 131,61.322 100.068,74.361 69.14,87.4 44.729,105.149 26.84,127.609 8.947,150.068 0,174.523 0,200.982 c 0,22.648 6.764,43.975 20.276,63.957 13.512,19.985 32.071,36.833 55.671,50.535 -1.902,4.572 -3.853,8.754 -5.852,12.566 -2,3.806 -4.377,7.467 -7.139,10.991 -2.76,3.525 -4.899,6.283 -6.423,8.275 -1.523,1.998 -3.997,4.809 -7.424,8.422 -3.428,3.617 -5.618,5.996 -6.567,7.135 0,-0.191 -0.383,0.24 -1.143,1.287 -0.763,1.047 -1.191,1.52 -1.287,1.431 -0.094,-0.103 -0.476,0.373 -1.141,1.42 -0.666,1.048 -1,1.571 -1,1.571 l -0.715,1.423 c -0.284,0.568 -0.476,1.137 -0.57,1.712 -0.096,0.567 -0.144,1.19 -0.144,1.854 0,0.664 0.094,1.28 0.286,1.854 0.383,2.471 1.477,4.466 3.284,5.996 1.809,1.52 3.757,2.279 5.854,2.279 h 0.857 c 9.515,-1.332 17.701,-2.854 24.552,-4.569 29.312,-7.614 55.771,-19.797 79.372,-36.545 17.128,3.046 33.88,4.568 50.248,4.568 36.354,0.012 69.999,-6.503 100.928,-19.542 z m -159.739,-23.835 -12.564,8.846 c -5.33,3.614 -11.227,7.331 -17.7,11.14 l 9.995,-23.986 -27.694,-15.988 C 75.945,273.123 61.767,260.56 51.679,246.094 41.59,231.629 36.548,216.592 36.548,200.983 c 0,-19.417 7.474,-37.594 22.414,-54.534 14.938,-16.94 35.067,-30.358 60.382,-40.259 25.313,-9.895 52.532,-14.847 81.653,-14.847 29.121,0 56.342,4.952 81.654,14.847 25.313,9.9 45.442,23.319 60.388,40.259 14.94,16.939 22.408,35.116 22.408,54.534 0,19.414 -7.468,37.59 -22.408,54.53 -14.945,16.945 -35.074,30.36 -60.388,40.256 -25.312,9.897 -52.53,14.846 -81.654,14.846 -14.272,0 -28.833,-1.335 -43.681,-3.997 z"
               id="path4996" />
            <path
               style="fill:#ffffff"
               inkscape:connector-curvature="0"
               d="m 491.347,338.156 c 13.518,-19.896 20.272,-41.255 20.272,-64.098 0,-23.411 -7.139,-45.303 -21.409,-65.666 -14.277,-20.362 -33.694,-37.305 -58.245,-50.819 4.374,14.274 6.563,28.739 6.563,43.398 0,25.503 -6.368,49.676 -19.129,72.519 -12.752,22.836 -31.025,43.01 -54.816,60.524 -22.08,15.988 -47.205,28.261 -75.377,36.829 -28.164,8.562 -57.573,12.848 -88.218,12.848 -5.708,0 -14.084,-0.377 -25.122,-1.137 38.256,25.119 83.177,37.685 134.756,37.685 16.371,0 33.119,-1.526 50.251,-4.571 23.6,16.755 50.06,28.931 79.37,36.549 6.852,1.718 15.037,3.237 24.554,4.568 2.283,0.195 4.381,-0.476 6.283,-1.995 1.903,-1.526 3.142,-3.614 3.71,-6.276 -0.089,-1.143 0,-1.77 0.287,-1.861 0.281,-0.09 0.233,-0.712 -0.144,-1.852 -0.376,-1.144 -0.568,-1.715 -0.568,-1.715 l -0.712,-1.424 c -0.198,-0.376 -0.52,-0.903 -0.999,-1.567 -0.476,-0.66 -0.855,-1.14 -1.143,-1.427 -0.28,-0.284 -0.705,-0.763 -1.28,-1.424 -0.568,-0.66 -0.951,-1.092 -1.143,-1.283 -0.951,-1.143 -3.139,-3.521 -6.564,-7.139 -3.429,-3.613 -5.899,-6.42 -7.422,-8.418 -1.523,-1.999 -3.665,-4.757 -6.424,-8.282 -2.758,-3.518 -5.14,-7.183 -7.139,-10.991 -1.998,-3.806 -3.949,-7.995 -5.852,-12.56 23.594,-13.716 42.156,-30.512 55.66,-50.415 z"
               id="path4998" />
          </g>
        </g>
        <g
           style="fill:#ffffff"
           id="g5004" />
        <g
           style="fill:#ffffff"
           id="g5006" />
        <g
           style="fill:#ffffff"
           id="g5008" />
        <g
           style="fill:#ffffff"
           id="g5010" />
        <g
           style="fill:#ffffff"
           id="g5012" />
        <g
           style="fill:#ffffff"
           id="g5014" />
        <g
           style="fill:#ffffff"
           id="g5016" />
        <g
           style="fill:#ffffff"
           id="g5018" />
        <g
           style="fill:#ffffff"
           id="g5020" />
        <g
           style="fill:#ffffff"
           id="g5022" />
        <g
           style="fill:#ffffff"
           id="g5024" />
        <g
           style="fill:#ffffff"
           id="g5026" />
        <g
           style="fill:#ffffff"
           id="g5028" />
        <g
           style="fill:#ffffff"
           id="g5030" />
        <g
           style="fill:#ffffff"
           id="g5032" />
      </g>
      <g
         style="fill:#ffffff"
         transform="matrix(0.01839186,0,0,0.01839186,257.79925,233.6455)"
         id="g5070">
        <g
           style="fill:#ffffff"
           id="g5038">
          <path
             inkscape:connector-curvature="0"
             style="clip-rule:evenodd;fill:#ffffff;fill-rule:evenodd"
             d="M 131.804,106.491 207.74,30.555 c 6.99,-6.99 6.99,-18.323 0,-25.312 -6.99,-6.99 -18.322,-6.99 -25.312,0 L 106.491,81.18 30.554,5.242 c -6.99,-6.99 -18.322,-6.99 -25.312,0 -6.989,6.99 -6.989,18.323 0,25.312 L 81.179,106.49 5.242,182.427 c -6.989,6.99 -6.989,18.323 0,25.312 6.99,6.99 18.322,6.99 25.312,0 l 75.937,-75.937 75.937,75.937 c 6.989,6.99 18.322,6.99 25.312,0 6.99,-6.99 6.99,-18.322 0,-25.312 z"
             id="path5036" />
        </g>
        <g
           style="fill:#ffffff"
           id="g5040" />
        <g
           style="fill:#ffffff"
           id="g5042" />
        <g
           style="fill:#ffffff"
           id="g5044" />
        <g
           style="fill:#ffffff"
           id="g5046" />
        <g
           style="fill:#ffffff"
           id="g5048" />
        <g
           style="fill:#ffffff"
           id="g5050" />
        <g
           style="fill:#ffffff"
           id="g5052" />
        <g
           style="fill:#ffffff"
           id="g5054" />
        <g
           style="fill:#ffffff"
           id="g5056" />
        <g
           style="fill:#ffffff"
           id="g5058" />
        <g
           style="fill:#ffffff"
           id="g5060" />
        <g
           style="fill:#ffffff"
           id="g5062" />
        <g
           style="fill:#ffffff"
           id="g5064" />
        <g
           style="fill:#ffffff"
           id="g5066" />
        <g
           style="fill:#ffffff"
           id="g5068" />
      </g>
    </g>
  </g>
</svg>
