<?xml version="1.0" encoding="UTF-8" standalone="no"?>
<!-- Created with Inkscape (http://www.inkscape.org/) -->

<svg
   xmlns:dc="http://purl.org/dc/elements/1.1/"
   xmlns:cc="http://creativecommons.org/ns#"
   xmlns:rdf="http://www.w3.org/1999/02/22-rdf-syntax-ns#"
   xmlns:svg="http://www.w3.org/2000/svg"
   xmlns="http://www.w3.org/2000/svg"
   xmlns:sodipodi="http://sodipodi.sourceforge.net/DTD/sodipodi-0.dtd"
   xmlns:inkscape="http://www.inkscape.org/namespaces/inkscape"
   width="21.166666mm"
   height="21.166666mm"
   viewBox="0 0 21.166666 21.166667"
   version="1.1"
   id="svg5165"
   inkscape:version="0.92.0 r15299"
   sodipodi:docname="icon-mensseger.svg">
  <defs
     id="defs5159" />
  <sodipodi:namedview
     id="base"
     pagecolor="#ffffff"
     bordercolor="#666666"
     borderopacity="1.0"
     inkscape:pageopacity="0.0"
     inkscape:pageshadow="2"
     inkscape:zoom="1.9869693"
     inkscape:cx="-120.65753"
     inkscape:cy="5.0535618"
     inkscape:document-units="mm"
     inkscape:current-layer="layer1"
     showgrid="false"
     fit-margin-top="0"
     fit-margin-left="0"
     fit-margin-right="0"
     fit-margin-bottom="0"
     inkscape:window-width="1920"
     inkscape:window-height="1017"
     inkscape:window-x="-8"
     inkscape:window-y="-8"
     inkscape:window-maximized="1" />
  <metadata
     id="metadata5162">
    <rdf:RDF>
      <cc:Work
         rdf:about="">
        <dc:format>image/svg+xml</dc:format>
        <dc:type
           rdf:resource="http://purl.org/dc/dcmitype/StillImage" />
        <dc:title></dc:title>
      </cc:Work>
    </rdf:RDF>
  </metadata>
  <g
     inkscape:label="Layer 1"
     inkscape:groupmode="layer"
     id="layer1"
     transform="translate(-216.20238,-75.905232)">
    <g
       id="g5958"
       transform="translate(-21.391126,-35.180156)">
      <g
         id="g4781"
         transform="matrix(0.02396373,0,0,0.02396373,242.04149,115.53339)">
        <path
           id="path4747"
           d="M 256.025,0.05 C 117.67,-2.678 3.184,107.038 0.025,245.383 0.386,315.806 31.569,382.54 85.358,427.996 v 73.387 c 0,5.891 4.776,10.667 10.667,10.667 1.999,0 3.958,-0.562 5.653,-1.621 l 59.456,-37.141 c 30.292,11.586 62.459,17.494 94.891,17.429 138.355,2.728 252.841,-106.988 256,-245.333 C 508.866,107.038 394.38,-2.678 256.025,0.05 Z"
           style="fill:#2196f3;stroke:#ffffff;stroke-width:40;stroke-linecap:square;stroke-linejoin:miter;stroke-miterlimit:4;stroke-dasharray:none;stroke-opacity:1;paint-order:normal"
           inkscape:connector-curvature="0" />
        <path
           id="path4749"
           d="m 424.558,174.983 c -3.174,-4.254 -8.993,-5.527 -13.653,-2.987 l -110.933,60.48 -69.013,-59.179 c -4.232,-3.628 -10.544,-3.387 -14.485,0.555 l -128,128 c -4.153,4.178 -4.133,10.932 0.046,15.085 3.341,3.321 8.464,4.057 12.605,1.811 l 110.933,-60.48 69.077,59.2 c 4.232,3.628 10.544,3.387 14.485,-0.555 l 128,-128 c 3.73,-3.765 4.13,-9.698 0.938,-13.93 z"
           style="fill:#fafafa"
           inkscape:connector-curvature="0" />
        <g
           id="g4751" />
        <g
           id="g4753" />
        <g
           id="g4755" />
        <g
           id="g4757" />
        <g
           id="g4759" />
        <g
           id="g4761" />
        <g
           id="g4763" />
        <g
           id="g4765" />
        <g
           id="g4767" />
        <g
           id="g4769" />
        <g
           id="g4771" />
        <g
           id="g4773" />
        <g
           id="g4775" />
        <g
           id="g4777" />
        <g
           id="g4779" />
      </g>
    </g>
  </g>
</svg>
