<?xml version="1.0" encoding="UTF-8" standalone="no"?>
<!-- Created with Inkscape (http://www.inkscape.org/) -->

<svg
   xmlns:dc="http://purl.org/dc/elements/1.1/"
   xmlns:cc="http://creativecommons.org/ns#"
   xmlns:rdf="http://www.w3.org/1999/02/22-rdf-syntax-ns#"
   xmlns:svg="http://www.w3.org/2000/svg"
   xmlns="http://www.w3.org/2000/svg"
   xmlns:sodipodi="http://sodipodi.sourceforge.net/DTD/sodipodi-0.dtd"
   xmlns:inkscape="http://www.inkscape.org/namespaces/inkscape"
   width="21.166666mm"
   height="21.166666mm"
   viewBox="0 0 21.166666 21.166666"
   version="1.1"
   id="svg7114"
   inkscape:version="0.92.0 r15299"
   sodipodi:docname="fb-modern.svg">
  <defs
     id="defs7108" />
  <sodipodi:namedview
     id="base"
     pagecolor="#ffffff"
     bordercolor="#666666"
     borderopacity="1.0"
     inkscape:pageopacity="0.0"
     inkscape:pageshadow="2"
     inkscape:zoom="4.7645528"
     inkscape:cx="24.235907"
     inkscape:cy="29.446317"
     inkscape:document-units="mm"
     inkscape:current-layer="layer1"
     showgrid="false"
     fit-margin-top="0"
     fit-margin-left="0"
     fit-margin-right="0"
     fit-margin-bottom="0"
     inkscape:window-width="1920"
     inkscape:window-height="1017"
     inkscape:window-x="-8"
     inkscape:window-y="-8"
     inkscape:window-maximized="1" />
  <metadata
     id="metadata7111">
    <rdf:RDF>
      <cc:Work
         rdf:about="">
        <dc:format>image/svg+xml</dc:format>
        <dc:type
           rdf:resource="http://purl.org/dc/dcmitype/StillImage" />
        <dc:title></dc:title>
      </cc:Work>
    </rdf:RDF>
  </metadata>
  <g
     inkscape:label="Layer 1"
     inkscape:groupmode="layer"
     id="layer1"
     transform="translate(-125.31061,-135.89331)">
    <rect
       style="opacity:1;vector-effect:none;fill:none;fill-opacity:1;stroke:none;stroke-width:4.29468584;stroke-linecap:square;stroke-linejoin:miter;stroke-miterlimit:4;stroke-dasharray:none;stroke-opacity:1;paint-order:normal"
       id="rect6340"
       width="21.166666"
       height="21.166666"
       x="125.31061"
       y="135.89331" />
    <g
       id="g4576"
       transform="matrix(0.02624802,0,0,0.02624802,129.26999,139.85269)">
      <path
         id="path4509"
         d="M 252.952,0.36 C 113.784,0.36 0,104.832 0,233.696 0,307.12 36.952,372.624 92.952,415.4 v 88.96 l 86.776,-47.088 c 22.896,6.344 47.632,9.76 72.752,9.76 139.168,0 252.24,-104.472 252.24,-233.336 C 504.72,104.832 392.12,0.36 252.952,0.36 Z M 278.008,314.584 213.824,246.136 88.608,314.584 226.352,168.36 292.088,236.808 415.744,168.36 Z"
         style="fill:#3ad5f9"
         inkscape:connector-curvature="0" />
      <path
         id="path4511"
         d="M 252.952,19.648 C 113.784,19.648 0,104.824 0,233.696 0,307.12 36.952,372.624 92.952,415.4 v 88.96 l 86.776,-47.088 c 22.896,6.344 47.632,9.76 72.752,9.76 139.168,0 252.24,-104.472 252.24,-233.336 0,-128.864 -112.6,-214.048 -251.768,-214.048 z M 278.008,314.584 213.824,246.136 88.608,314.584 226.352,168.36 292.088,236.808 415.744,168.36 Z"
         style="fill:#0382f9"
         inkscape:connector-curvature="0" />
      <g
         id="g4517">
        <polygon
           id="polygon4513"
           points="292.088,236.8 401.064,176.488 283.4,227.76 "
           style="fill:#0656f7" />
        <path
           id="path4515"
           d="m 412.984,171.288 -134.976,143.296 -56.24,-59.968 -115.68,50.408 -17.48,9.56 3.096,-3.288 -64.544,27.712 c 16.24,29.648 38.416,55.84 65.792,76.392 v 88.96 l 86.776,-47.088 c 22.896,6.344 47.632,9.76 72.752,9.76 139.168,0 252.24,-104.472 252.24,-233.336 0,-33.192 -8.768,-64.144 -22.256,-92.728 z"
           style="fill:#0656f7"
           inkscape:connector-curvature="0" />
      </g>
      <g
         id="g4519" />
      <g
         id="g4521" />
      <g
         id="g4523" />
      <g
         id="g4525" />
      <g
         id="g4527" />
      <g
         id="g4529" />
      <g
         id="g4531" />
      <g
         id="g4533" />
      <g
         id="g4535" />
      <g
         id="g4537" />
      <g
         id="g4539" />
      <g
         id="g4541" />
      <g
         id="g4543" />
      <g
         id="g4545" />
      <g
         id="g4547" />
    </g>
    <path
       style="opacity:1;vector-effect:none;fill:#ffffff;fill-opacity:1;stroke:none;stroke-width:3.99999976;stroke-linecap:square;stroke-linejoin:miter;stroke-miterlimit:4;stroke-dasharray:none;stroke-opacity:1;paint-order:normal"
       d="M 37.419922 31.666016 L 23.755859 46.173828 L 36.177734 39.382812 L 42.544922 46.173828 L 56.208984 31.666016 L 43.941406 38.457031 L 37.419922 31.666016 z "
       transform="matrix(0.26458333,0,0,0.26458333,125.31061,135.89331)"
       id="rect4527" />
  </g>
</svg>
