<?xml version="1.0" encoding="UTF-8" standalone="no"?>
<!-- Created with Inkscape (http://www.inkscape.org/) -->

<svg
   xmlns:dc="http://purl.org/dc/elements/1.1/"
   xmlns:cc="http://creativecommons.org/ns#"
   xmlns:rdf="http://www.w3.org/1999/02/22-rdf-syntax-ns#"
   xmlns:svg="http://www.w3.org/2000/svg"
   xmlns="http://www.w3.org/2000/svg"
   xmlns:sodipodi="http://sodipodi.sourceforge.net/DTD/sodipodi-0.dtd"
   xmlns:inkscape="http://www.inkscape.org/namespaces/inkscape"
   width="21.166666mm"
   height="21.166666mm"
   viewBox="0 0 21.166666 21.166666"
   version="1.1"
   id="svg7114"
   inkscape:version="0.92.0 r15299"
   sodipodi:docname="skype-modern.svg">
  <defs
     id="defs7108" />
  <sodipodi:namedview
     id="base"
     pagecolor="#ffffff"
     bordercolor="#666666"
     borderopacity="1.0"
     inkscape:pageopacity="0.0"
     inkscape:pageshadow="2"
     inkscape:zoom="7.9195959"
     inkscape:cx="19.199002"
     inkscape:cy="44.589915"
     inkscape:document-units="mm"
     inkscape:current-layer="layer1"
     showgrid="false"
     fit-margin-top="0"
     fit-margin-left="0"
     fit-margin-right="0"
     fit-margin-bottom="0"
     inkscape:window-width="1920"
     inkscape:window-height="1017"
     inkscape:window-x="-8"
     inkscape:window-y="-8"
     inkscape:window-maximized="1" />
  <metadata
     id="metadata7111">
    <rdf:RDF>
      <cc:Work
         rdf:about="">
        <dc:format>image/svg+xml</dc:format>
        <dc:type
           rdf:resource="http://purl.org/dc/dcmitype/StillImage" />
        <dc:title></dc:title>
      </cc:Work>
    </rdf:RDF>
  </metadata>
  <g
     inkscape:label="Layer 1"
     inkscape:groupmode="layer"
     id="layer1"
     transform="translate(-125.31061,-135.89331)">
    <rect
       style="opacity:1;vector-effect:none;fill:none;fill-opacity:1;stroke:none;stroke-width:4.29468584;stroke-linecap:square;stroke-linejoin:miter;stroke-miterlimit:4;stroke-dasharray:none;stroke-opacity:1;paint-order:normal"
       id="rect6340"
       width="21.166666"
       height="21.166666"
       x="125.31061"
       y="135.89331" />
    <g
       id="g4663"
       transform="matrix(0.02667137,0,0,0.02667137,129.27944,139.86214)">
      <path
         id="path4578"
         d="m 487.192,250.568 c 0,-128.792 -105.88,-233.232 -236.56,-233.232 -13.768,0 -27.28,1.184 -40.456,3.424 C 189.032,7.624 164.016,0 137.2,0 61.416,0 0,60.544 0,135.288 c 0,24.96 6.896,48.304 18.84,68.432 -3.12,15.12 -4.784,30.824 -4.784,46.848 0,128.856 105.92,233.272 236.568,233.272 14.816,0 29.272,-1.352 43.336,-3.912 C 313.288,490.168 335.344,496 358.824,496 434.584,496 496,435.432 496,360.736 c 0,-21.584 -5.128,-41.976 -14.256,-60.072 3.584,-16.168 5.448,-32.896 5.448,-50.096 z M 371.976,362.064 c -10.936,15.296 -27.088,27.376 -48.088,35.944 -20.744,8.504 -45.584,12.84 -73.896,12.84 -33.984,0 -62.464,-5.896 -84.72,-17.536 -15.896,-8.448 -28.992,-19.888 -38.936,-34.096 -10.056,-14.256 -15.128,-28.44 -15.128,-42.152 0,-8.504 3.312,-15.92 9.84,-21.992 6.48,-6.032 14.792,-9.056 24.704,-9.056 8.112,0 15.144,2.392 20.832,7.136 5.456,4.568 10.12,11.328 13.872,19.976 4.208,9.496 8.752,17.488 13.56,23.72 4.672,6.096 11.344,11.184 19.864,15.176 8.56,3.968 20.152,6.04 34.352,6.04 19.56,0 35.592,-4.144 47.656,-12.248 11.8,-7.904 17.512,-17.448 17.512,-29.128 0,-9.168 -3,-16.416 -9.112,-22.104 -6.496,-5.92 -14.976,-10.52 -25.272,-13.752 -10.76,-3.272 -25.336,-6.864 -43.392,-10.6 -24.576,-5.168 -45.44,-11.296 -62,-18.28 -16.976,-7.112 -30.64,-16.96 -40.648,-29.296 -10.152,-12.568 -15.32,-28.296 -15.32,-46.776 0,-17.6 5.408,-33.504 16.072,-47.176 10.56,-13.592 26.016,-24.232 45.928,-31.456 19.632,-7.16 42.952,-10.784 69.416,-10.784 21.112,0 39.696,2.424 55.216,7.184 15.584,4.784 28.712,11.216 39.032,19.176 10.408,8.048 18.168,16.592 23.008,25.504 4.896,9 7.408,17.944 7.408,26.6 0,8.328 -3.256,15.912 -9.704,22.496 -6.464,6.664 -14.672,10.032 -24.296,10.032 -8.752,0 -15.624,-2.128 -20.352,-6.272 -4.44,-3.872 -9.04,-9.92 -14.144,-18.544 -5.896,-11.032 -13.056,-19.744 -21.232,-25.896 -7.968,-5.976 -21.24,-8.968 -39.52,-8.968 -16.912,0 -30.736,3.336 -40.968,9.976 -9.856,6.352 -14.672,13.68 -14.672,22.36 0,5.296 1.552,9.744 4.76,13.552 3.328,4.08 8.072,7.576 14.088,10.568 6.208,3.08 12.632,5.544 19.04,7.272 6.568,1.816 17.584,4.488 32.728,7.928 19.168,4.024 36.752,8.6 52.28,13.512 15.784,4.944 29.368,11.04 40.504,18.192 11.32,7.28 20.272,16.592 26.648,27.752 6.4,11.232 9.64,25.032 9.64,41.112 0.008,19.232 -5.592,36.736 -16.56,52.064 z"
         style="fill:#24aef0"
         inkscape:connector-curvature="0" />
      <g
         id="g4584">
        <path
           id="path4580"
           d="m 92.496,423.888 c 1.448,1.28 2.84,2.6 4.32,3.848 -5.056,-6.016 -10.352,-12.6 -15.696,-19.536 3.76,5.408 7.576,10.656 11.376,15.688 z"
           style="fill:#22d5ff"
           inkscape:connector-curvature="0" />
        <path
           id="path4582"
           d="m 193.68,421.728 c 22.264,11.64 50.76,17.528 84.72,17.528 28.328,0 53.168,-4.336 73.896,-12.84 21.016,-8.56 37.168,-20.64 48.104,-35.936 10.96,-15.328 16.56,-32.832 16.56,-52.032 0,-16.08 -3.232,-29.872 -9.624,-41.12 -6.392,-11.16 -15.344,-20.464 -26.656,-27.744 -0.68,-0.44 -1.456,-0.832 -2.168,-1.264 0.128,0.2 0.28,0.384 0.392,0.6 6.4,11.232 9.64,25.032 9.64,41.112 0,19.2 -5.6,36.704 -16.568,52.032 -10.936,15.296 -27.088,27.376 -48.088,35.944 -20.744,8.504 -45.584,12.84 -73.896,12.84 -33.984,0 -62.464,-5.896 -84.72,-17.536 -3.928,-2.088 -7.688,-4.368 -11.264,-6.816 0.256,0.384 0.488,0.752 0.752,1.128 9.944,14.208 23.032,25.656 38.92,34.104 z"
           style="fill:#22d5ff"
           inkscape:connector-curvature="0" />
      </g>
      <path
         id="path4586"
         d="m 213.888,352.032 c 8.56,3.968 20.152,6.04 34.352,6.04 19.56,0 35.592,-4.144 47.656,-12.248 11.8,-7.904 17.512,-17.448 17.512,-29.128 0,-9.168 -3,-16.416 -9.112,-22.104 -2.528,-2.296 -5.424,-4.336 -8.52,-6.224 -29.04,23.6 -63.64,40.592 -101.536,48.728 4.664,5.976 11.256,11.008 19.648,14.936 z"
         style="fill:#0b97ce"
         inkscape:connector-curvature="0" />
      <path
         id="path4588"
         d="m 481.744,300.664 c 3.584,-16.168 5.456,-32.896 5.456,-50.096 0,-81.184 -42.112,-152.68 -105.952,-194.448 2.648,14.352 4.104,29.112 4.104,44.232 0,50.328 -15.368,97.072 -41.64,135.8 2.992,1.608 5.856,3.272 8.552,5.016 11.32,7.28 20.272,16.592 26.648,27.752 6.4,11.232 9.64,25.032 9.64,41.112 0,19.2 -5.6,36.704 -16.568,52.032 -10.936,15.296 -27.088,27.376 -48.088,35.944 -20.744,8.504 -45.584,12.84 -73.896,12.84 -33.984,0 -62.464,-5.896 -84.72,-17.536 -15.896,-8.448 -28.992,-19.888 -38.936,-34.096 -4.296,-6.096 -7.624,-12.168 -10.096,-18.2 -34.12,-3.768 -66.088,-14.656 -94.44,-31.104 26.624,100.104 118.976,173.928 228.824,173.928 14.816,0 29.272,-1.352 43.336,-3.912 C 313.288,490.168 335.344,496 358.824,496 434.584,496 496,435.432 496,360.736 c 0,-21.576 -5.128,-41.968 -14.256,-60.072 z"
         style="fill:#0798d8"
         inkscape:connector-curvature="0" />
      <path
         id="path4590"
         d="M 483.48,291.728 C 448.92,376.784 382.184,445.256 298.328,482.072 316.592,490.952 337.088,496 358.824,496 434.584,496 496,435.432 496,360.736 c 0,-21.584 -5.128,-41.976 -14.256,-60.072 0.656,-2.952 1.184,-5.952 1.736,-8.936 z"
         style="fill:#0d83cc"
         inkscape:connector-curvature="0" />
      <g
         id="g4598">
        <path
           id="path4592"
           d="m 279.496,22.04 c 22.464,2.832 43.544,7.456 62.456,13.336 -28.096,-11.608 -58.936,-18.04 -91.312,-18.04 -10.376,0 -20.608,0.68 -30.664,1.96 18.584,-0.696 38.656,0.12 59.52,2.744 z"
           style="fill:#22d5ff"
           inkscape:connector-curvature="0" />
        <path
           id="path4594"
           d="m 428.536,96.984 c 0.128,0.616 0.352,1.232 0.448,1.856 1.264,1.032 2.616,1.952 3.872,3.008 -1.392,-1.664 -2.872,-3.24 -4.32,-4.864 z"
           style="fill:#22d5ff"
           inkscape:connector-curvature="0" />
        <path
           id="path4596"
           d="m 151.424,19.376 c 10.912,0 21.504,1.328 31.696,3.712 8.072,-1.408 16.648,-2.456 25.672,-3.12 C 187.936,7.336 163.44,0 137.2,0 61.416,0 0,60.544 0,135.288 c 0,24.96 6.896,48.304 18.84,68.432 -3.12,15.12 -4.784,30.824 -4.784,46.848 0,3.768 0.112,7.496 0.288,11.216 3.448,-16.952 9,-31.832 16.088,-43.44 C 20.136,199.328 14.2,177.696 14.2,154.656 14.2,79.92 75.632,19.376 151.424,19.376 Z"
           style="fill:#22d5ff"
           inkscape:connector-curvature="0" />
      </g>
      <g
         id="g4600" />
      <g
         id="g4602" />
      <g
         id="g4604" />
      <g
         id="g4606" />
      <g
         id="g4608" />
      <g
         id="g4610" />
      <g
         id="g4612" />
      <g
         id="g4614" />
      <g
         id="g4616" />
      <g
         id="g4618" />
      <g
         id="g4620" />
      <g
         id="g4622" />
      <g
         id="g4624" />
      <g
         id="g4626" />
      <g
         id="g4628" />
    </g>
    <path
       style="opacity:1;vector-effect:none;fill:#ffffff;fill-opacity:1;stroke:none;stroke-width:3.67883587;stroke-linecap:square;stroke-linejoin:miter;stroke-miterlimit:4;stroke-dasharray:none;stroke-opacity:1;paint-order:normal"
       d="M 40.107422 23.716797 C 37.439718 23.716797 35.090327 24.080958 33.111328 24.802734 C 31.104097 25.530936 29.544973 26.604455 28.480469 27.974609 C 27.405496 29.352814 26.861328 30.956283 26.861328 32.730469 C 26.861328 34.59336 27.380914 36.178377 28.404297 37.445312 C 29.413166 38.688853 30.790696 39.681499 32.501953 40.398438 C 34.171295 41.10245 36.274548 41.719264 38.751953 42.240234 C 40.57206 42.616827 42.042304 42.980594 43.126953 43.310547 C 44.164849 43.63638 45.018987 44.098525 45.673828 44.695312 C 46.290005 45.268705 46.591797 45.999658 46.591797 46.923828 C 46.591797 48.101227 46.017618 49.064566 44.828125 49.861328 C 43.611986 50.678235 41.995179 51.095703 40.023438 51.095703 C 38.591979 51.095703 37.423451 50.886316 36.560547 50.486328 C 35.701687 50.083922 35.029561 49.571545 34.558594 48.957031 C 34.073945 48.328798 33.615583 47.521694 33.191406 46.564453 C 32.813189 45.692705 32.342966 45.011241 31.792969 44.550781 C 31.219614 44.072558 30.51106 43.832031 29.693359 43.832031 C 28.694166 43.832031 27.856341 44.138043 27.203125 44.746094 C 26.54492 45.358188 26.210938 46.105656 26.210938 46.962891 C 26.210938 48.345139 26.722659 49.773886 27.736328 51.210938 C 28.738734 52.643189 30.05775 53.796834 31.660156 54.648438 C 33.903684 55.821792 36.775408 56.416016 40.201172 56.416016 C 43.055169 56.416016 45.559291 55.978328 47.650391 55.121094 C 49.767304 54.257396 51.395634 53.039981 52.498047 51.498047 C 53.603672 49.9529 54.166809 48.188709 54.166016 46.25 C 54.166016 44.629074 53.84044 43.237702 53.195312 42.105469 C 52.552566 40.980492 51.648927 40.042465 50.507812 39.308594 C 49.385217 38.587611 48.016887 37.973016 46.425781 37.474609 C 44.86049 36.979453 43.088496 36.516947 41.15625 36.111328 C 39.629661 35.764556 38.51952 35.495429 37.857422 35.3125 C 37.211463 35.138302 36.563276 34.890755 35.9375 34.580078 C 35.331037 34.278472 34.8532 33.926913 34.517578 33.515625 C 34.19424 33.131776 34.037109 32.682296 34.037109 32.148438 C 34.037109 31.273439 34.522063 30.534821 35.515625 29.894531 C 36.547058 29.225253 37.941653 28.888672 39.646484 28.888672 C 41.489193 28.888672 42.825719 29.190588 43.628906 29.792969 C 44.453108 30.413151 45.175163 31.292209 45.769531 32.404297 C 46.284038 33.273626 46.747741 33.883126 47.195312 34.273438 C 47.671911 34.691378 48.36583 34.904297 49.248047 34.904297 C 50.218214 34.904297 51.045675 34.566304 51.697266 33.894531 C 52.34742 33.230846 52.675781 32.466424 52.675781 31.626953 C 52.675781 30.754374 52.421265 29.85255 51.927734 28.945312 C 51.439835 28.046919 50.658572 27.184322 49.609375 26.373047 C 48.569098 25.570653 47.244751 24.923674 45.673828 24.441406 C 44.10933 23.961746 42.235636 23.716797 40.107422 23.716797 z "
       id="rect5123"
       transform="matrix(0.26458333,0,0,0.26458333,125.31061,135.89331)" />
  </g>
</svg>
