<?xml version="1.0" encoding="UTF-8" standalone="no"?>
<!-- Created with Inkscape (http://www.inkscape.org/) -->

<svg
   xmlns:dc="http://purl.org/dc/elements/1.1/"
   xmlns:cc="http://creativecommons.org/ns#"
   xmlns:rdf="http://www.w3.org/1999/02/22-rdf-syntax-ns#"
   xmlns:svg="http://www.w3.org/2000/svg"
   xmlns="http://www.w3.org/2000/svg"
   xmlns:sodipodi="http://sodipodi.sourceforge.net/DTD/sodipodi-0.dtd"
   xmlns:inkscape="http://www.inkscape.org/namespaces/inkscape"
   width="21.166666mm"
   height="21.166666mm"
   viewBox="0 0 21.166666 21.166666"
   version="1.1"
   id="svg7114"
   inkscape:version="0.92.0 r15299"
   sodipodi:docname="skype-lite.svg">
  <defs
     id="defs7108" />
  <sodipodi:namedview
     id="base"
     pagecolor="#ffffff"
     bordercolor="#666666"
     borderopacity="1.0"
     inkscape:pageopacity="0.0"
     inkscape:pageshadow="2"
     inkscape:zoom="2.8284271"
     inkscape:cx="-88.252414"
     inkscape:cy="34.635589"
     inkscape:document-units="mm"
     inkscape:current-layer="layer1"
     showgrid="false"
     fit-margin-top="0"
     fit-margin-left="0"
     fit-margin-right="0"
     fit-margin-bottom="0"
     inkscape:window-width="1920"
     inkscape:window-height="1017"
     inkscape:window-x="-8"
     inkscape:window-y="-8"
     inkscape:window-maximized="1" />
  <metadata
     id="metadata7111">
    <rdf:RDF>
      <cc:Work
         rdf:about="">
        <dc:format>image/svg+xml</dc:format>
        <dc:type
           rdf:resource="http://purl.org/dc/dcmitype/StillImage" />
        <dc:title></dc:title>
      </cc:Work>
    </rdf:RDF>
  </metadata>
  <g
     inkscape:label="Layer 1"
     inkscape:groupmode="layer"
     id="layer1"
     transform="translate(-125.31061,-135.89331)">
    <rect
       style="opacity:1;vector-effect:none;fill:none;fill-opacity:1;stroke:none;stroke-width:4.29468584;stroke-linecap:square;stroke-linejoin:miter;stroke-miterlimit:4;stroke-dasharray:none;stroke-opacity:1;paint-order:normal"
       id="rect6340"
       width="21.166666"
       height="21.166666"
       x="125.31061"
       y="135.89331" />
    <g
       id="g6831"
       transform="matrix(0.02783066,0,0,0.02783066,128.76929,139.35201)">
      <path
         id="path6761"
         d="m 482.711,284.619 c 1.19,-9.509 1.793,-19.12 1.793,-28.62 0,-61.036 -23.769,-118.418 -66.927,-161.578 C 374.418,51.265 317.036,27.495 256,27.495 c -21.392,0 -42.557,2.96 -62.973,8.803 C 173.309,24.532 150.803,18.33 127.684,18.33 57.279,18.331 0,75.609 0,146.014 c 0,29.773 10.373,58.511 29.289,81.365 -1.19,9.507 -1.793,19.117 -1.793,28.62 0,61.036 23.769,118.418 66.927,161.578 43.158,43.158 100.541,66.927 161.577,66.927 21.393,0 42.557,-2.96 62.973,-8.803 19.718,11.767 42.224,17.968 65.343,17.968 70.405,0 127.684,-57.278 127.684,-127.683 0,-29.774 -10.373,-58.511 -29.289,-81.367 z"
         style="fill:#e5e5e5"
         inkscape:connector-curvature="0" />
      <path
         id="path6763"
         d="m 401.382,469.333 c -23.119,0 -45.623,-6.201 -65.343,-17.968 -20.416,5.843 -41.58,8.803 -62.973,8.803 -61.036,0 -118.418,-23.769 -161.577,-66.927 C 68.331,350.082 44.562,292.699 44.562,231.663 c 0,-9.503 0.603,-19.113 1.793,-28.62 C 27.439,180.189 17.065,151.45 17.065,121.678 17.065,99.815 22.591,79.22 32.316,61.211 12.227,83.78 0,113.493 0,146.014 c 0,29.773 10.373,58.511 29.289,81.365 -1.19,9.507 -1.793,19.117 -1.793,28.62 0,61.036 23.769,118.418 66.927,161.578 43.158,43.158 100.541,66.927 161.577,66.927 21.393,0 42.557,-2.96 62.973,-8.803 19.718,11.767 42.224,17.968 65.343,17.968 48.543,0 90.842,-27.231 112.433,-67.217 -23.405,26.29 -57.482,42.881 -95.367,42.881 z"
         style="fill:#cccccc"
         inkscape:connector-curvature="0" />
      <path
         id="path6765"
         d="m 318.823,253.998 c -16.982,-11.986 -37.403,-19.193 -57.15,-26.162 -41.791,-14.75 -52.607,-22.119 -52.607,-35.837 0,-24.686 25.522,-29.867 46.933,-29.867 11.964,0 34.895,5.483 42.857,11.306 13.289,9.721 32.015,6.818 41.739,-6.473 9.723,-13.292 6.819,-32.016 -6.474,-41.74 -21.525,-15.744 -58.641,-22.827 -78.122,-22.827 -31.358,0 -57.888,8.295 -76.72,23.989 -19.311,16.093 -29.947,39.394 -29.947,65.611 0,27.257 11.879,49.461 35.31,66.001 16.983,11.987 37.403,19.194 57.15,26.162 41.79,14.75 52.607,22.119 52.607,35.837 0,24.686 -20.882,29.867 -38.4,29.867 -24.222,0 -45.552,-11.62 -50.194,-17.849 -4.767,-6.397 -11.74,-10.555 -19.633,-11.708 -7.893,-1.152 -15.765,0.838 -22.161,5.605 -13.205,9.842 -15.942,28.591 -6.101,41.796 18.087,24.271 59.341,41.888 98.09,41.888 28.446,0 52.867,-8.492 70.623,-24.556 17.997,-16.284 27.51,-38.775 27.51,-65.044 0,-27.254 -11.88,-49.459 -35.31,-65.999 z"
         style="fill:#3ccfe6"
         inkscape:connector-curvature="0" />
      <g
         id="g6771">
        <path
           id="path6767"
           d="m 184.643,258.001 c 16.983,11.987 37.403,19.194 57.15,26.162 41.007,14.474 52.182,21.844 52.588,35.076 2.683,-4.147 4.286,-9.477 4.286,-16.306 0,-13.717 -10.817,-21.087 -52.607,-35.837 -19.747,-6.969 -40.166,-14.175 -57.15,-26.162 -23.43,-16.54 -35.31,-38.745 -35.31,-66.001 0,-4.569 0.331,-9.046 0.966,-13.415 -3.442,9.473 -5.233,19.732 -5.233,30.482 0,27.256 11.88,49.461 35.31,66.001 z"
           style="fill:#2ec2d9"
           inkscape:connector-curvature="0" />
        <path
           id="path6769"
           d="m 330.89,367.977 c -17.756,16.064 -42.177,24.556 -70.623,24.556 -38.749,0 -80.002,-17.617 -98.09,-41.889 -3.65,-4.898 -5.566,-10.558 -5.862,-16.244 -6.09,10.09 -5.869,23.294 1.596,33.311 18.087,24.272 59.341,41.889 98.09,41.889 28.446,0 52.867,-8.492 70.623,-24.556 14.457,-13.081 23.425,-30.173 26.4,-50.004 -4.573,12.654 -12.012,23.778 -22.134,32.937 z"
           style="fill:#2ec2d9"
           inkscape:connector-curvature="0" />
      </g>
      <g
         id="g6773" />
      <g
         id="g6775" />
      <g
         id="g6777" />
      <g
         id="g6779" />
      <g
         id="g6781" />
      <g
         id="g6783" />
      <g
         id="g6785" />
      <g
         id="g6787" />
      <g
         id="g6789" />
      <g
         id="g6791" />
      <g
         id="g6793" />
      <g
         id="g6795" />
      <g
         id="g6797" />
      <g
         id="g6799" />
      <g
         id="g6801" />
    </g>
  </g>
</svg>
