<?xml version="1.0" encoding="UTF-8" standalone="no"?>
<!-- Created with Inkscape (http://www.inkscape.org/) -->

<svg
   xmlns:dc="http://purl.org/dc/elements/1.1/"
   xmlns:cc="http://creativecommons.org/ns#"
   xmlns:rdf="http://www.w3.org/1999/02/22-rdf-syntax-ns#"
   xmlns:svg="http://www.w3.org/2000/svg"
   xmlns="http://www.w3.org/2000/svg"
   xmlns:sodipodi="http://sodipodi.sourceforge.net/DTD/sodipodi-0.dtd"
   xmlns:inkscape="http://www.inkscape.org/namespaces/inkscape"
   width="21.166666mm"
   height="21.166666mm"
   viewBox="0 0 21.166666 21.166666"
   version="1.1"
   id="svg7114"
   inkscape:version="0.92.0 r15299"
   sodipodi:docname="wa-dark.svg">
  <defs
     id="defs7108" />
  <sodipodi:namedview
     id="base"
     pagecolor="#ffffff"
     bordercolor="#666666"
     borderopacity="1.0"
     inkscape:pageopacity="0.0"
     inkscape:pageshadow="2"
     inkscape:zoom="1.4"
     inkscape:cx="77.501861"
     inkscape:cy="111.25014"
     inkscape:document-units="mm"
     inkscape:current-layer="layer1"
     showgrid="false"
     fit-margin-top="0"
     fit-margin-left="0"
     fit-margin-right="0"
     fit-margin-bottom="0"
     inkscape:window-width="1920"
     inkscape:window-height="1017"
     inkscape:window-x="-8"
     inkscape:window-y="-8"
     inkscape:window-maximized="1" />
  <metadata
     id="metadata7111">
    <rdf:RDF>
      <cc:Work
         rdf:about="">
        <dc:format>image/svg+xml</dc:format>
        <dc:type
           rdf:resource="http://purl.org/dc/dcmitype/StillImage" />
        <dc:title></dc:title>
      </cc:Work>
    </rdf:RDF>
  </metadata>
  <g
     inkscape:label="Layer 1"
     inkscape:groupmode="layer"
     id="layer1"
     transform="translate(-125.31061,-135.89331)">
    <rect
       style="opacity:1;vector-effect:none;fill:none;fill-opacity:1;stroke:none;stroke-width:4.29468584;stroke-linecap:square;stroke-linejoin:miter;stroke-miterlimit:4;stroke-dasharray:none;stroke-opacity:1;paint-order:normal"
       id="rect6340"
       width="21.166666"
       height="21.166666"
       x="125.31061"
       y="135.89331" />
    <g
       transform="matrix(0.02396583,0,0,0.02396583,129.75562,140.33817)"
       id="g4745">
      <path
         inkscape:connector-curvature="0"
         style="fill:#000000;fill-opacity:1;stroke:#e6e6e6;stroke-width:40;stroke-linecap:square;stroke-linejoin:miter;stroke-miterlimit:4;stroke-dasharray:none;stroke-opacity:1;paint-order:normal"
         d="M 256.014,0.134 C 114.629,0.164 0.038,114.804 0.068,256.189 c 0.01,48.957 14.059,96.884 40.479,138.1 L 0.718,497.628 c -2.121,5.496 0.615,11.671 6.111,13.792 1.229,0.474 2.534,0.717 3.851,0.715 1.222,0.006 2.435,-0.203 3.584,-0.619 l 106.667,-38.08 C 240.943,548.181 398.825,511.484 473.569,391.471 548.313,271.458 511.617,113.577 391.604,38.833 350.922,13.495 303.943,0.087 256.014,0.134 Z"
         id="path4711" />
      <path
         inkscape:connector-curvature="0"
         style="fill:#e6e6e6;fill-opacity:1"
         d="m 378.062,299.889 c 0,0 -26.133,-12.8 -42.496,-21.333 -18.517,-9.536 -40.277,8.32 -50.517,18.475 -15.937,-6.122 -30.493,-15.362 -42.816,-27.179 -11.819,-12.321 -21.059,-26.877 -27.179,-42.816 10.155,-10.261 27.968,-32 18.475,-50.517 -8.427,-16.384 -21.333,-42.496 -21.333,-42.517 -1.811,-3.594 -5.49,-5.863 -9.515,-5.867 h -21.333 c -31.068,5.366 -53.657,32.474 -53.333,64 0,33.493 40.085,97.835 67.115,124.885 27.03,27.05 91.371,67.115 124.885,67.115 31.526,0.324 58.634,-22.266 64,-53.333 v -21.333 c 0.003,-4.068 -2.305,-7.783 -5.953,-9.58 z"
         id="path4713" />
      <g
         id="g4715" />
      <g
         id="g4717" />
      <g
         id="g4719" />
      <g
         id="g4721" />
      <g
         id="g4723" />
      <g
         id="g4725" />
      <g
         id="g4727" />
      <g
         id="g4729" />
      <g
         id="g4731" />
      <g
         id="g4733" />
      <g
         id="g4735" />
      <g
         id="g4737" />
      <g
         id="g4739" />
      <g
         id="g4741" />
      <g
         id="g4743" />
    </g>
  </g>
</svg>
