<?xml version="1.0" encoding="UTF-8" standalone="no"?>
<!-- Created with Inkscape (http://www.inkscape.org/) -->

<svg
   xmlns:dc="http://purl.org/dc/elements/1.1/"
   xmlns:cc="http://creativecommons.org/ns#"
   xmlns:rdf="http://www.w3.org/1999/02/22-rdf-syntax-ns#"
   xmlns:svg="http://www.w3.org/2000/svg"
   xmlns="http://www.w3.org/2000/svg"
   xmlns:sodipodi="http://sodipodi.sourceforge.net/DTD/sodipodi-0.dtd"
   xmlns:inkscape="http://www.inkscape.org/namespaces/inkscape"
   width="21.166666mm"
   height="21.166666mm"
   viewBox="0 0 21.166666 21.166666"
   version="1.1"
   id="svg7114"
   inkscape:version="0.92.0 r15299"
   sodipodi:docname="wa-modern.svg">
  <defs
     id="defs7108" />
  <sodipodi:namedview
     id="base"
     pagecolor="#ffffff"
     bordercolor="#666666"
     borderopacity="1.0"
     inkscape:pageopacity="0.0"
     inkscape:pageshadow="2"
     inkscape:zoom="7.9195959"
     inkscape:cx="46.301755"
     inkscape:cy="28.594985"
     inkscape:document-units="mm"
     inkscape:current-layer="layer1"
     showgrid="false"
     fit-margin-top="0"
     fit-margin-left="0"
     fit-margin-right="0"
     fit-margin-bottom="0"
     inkscape:window-width="1920"
     inkscape:window-height="1017"
     inkscape:window-x="-8"
     inkscape:window-y="-8"
     inkscape:window-maximized="1"
     inkscape:measure-start="0,0"
     inkscape:measure-end="0,0" />
  <metadata
     id="metadata7111">
    <rdf:RDF>
      <cc:Work
         rdf:about="">
        <dc:format>image/svg+xml</dc:format>
        <dc:type
           rdf:resource="http://purl.org/dc/dcmitype/StillImage" />
        <dc:title></dc:title>
      </cc:Work>
    </rdf:RDF>
  </metadata>
  <g
     inkscape:label="Layer 1"
     inkscape:groupmode="layer"
     id="layer1"
     transform="translate(-125.31061,-135.89331)">
    <rect
       style="opacity:1;vector-effect:none;fill:none;fill-opacity:1;stroke:none;stroke-width:4.29468584;stroke-linecap:square;stroke-linejoin:miter;stroke-miterlimit:4;stroke-dasharray:none;stroke-opacity:1;paint-order:normal"
       id="rect6340"
       width="21.166666"
       height="21.166666"
       x="125.31061"
       y="135.89331" />
    <path
       style="opacity:1;vector-effect:none;fill:#ffffff;fill-opacity:1;stroke:none;stroke-width:3.99999976;stroke-linecap:square;stroke-linejoin:miter;stroke-miterlimit:4;stroke-dasharray:none;stroke-opacity:1;paint-order:normal"
       d="M 30.589844 26.435547 C 29.635017 26.435547 28.635615 26.71315 28.033203 27.330078 C 27.297729 28.080069 25.476562 29.827817 25.476562 33.414062 C 25.476562 37.000308 28.092091 40.468454 28.445312 40.953125 C 28.812243 41.439409 33.543137 48.905369 40.890625 51.947266 C 46.634907 54.328687 48.338436 54.1083 49.646484 53.830078 C 51.556138 53.41718 53.951936 52.006745 54.552734 50.302734 C 55.155953 48.597917 55.156273 47.142511 54.980469 46.832031 C 54.804665 46.523164 54.318993 46.348206 53.585938 45.980469 C 52.851269 45.612731 49.28012 43.847956 48.603516 43.613281 C 47.94304 43.364091 47.309734 43.450954 46.810547 44.158203 C 46.105717 45.142868 45.415479 46.140922 44.857422 46.744141 C 44.416298 47.21349 43.695355 47.274241 43.09375 47.023438 C 42.284889 46.685539 40.021563 45.892043 37.230469 43.408203 C 35.070819 41.484034 33.602389 39.088953 33.175781 38.367188 C 32.748367 37.632519 33.130851 37.207316 33.46875 36.810547 C 33.834874 36.355714 34.188097 36.030463 34.556641 35.605469 C 34.923571 35.180474 35.129753 34.957025 35.365234 34.457031 C 35.616038 33.97236 35.437523 33.473206 35.261719 33.105469 C 35.085108 32.738538 33.616084 29.15128 33.013672 27.697266 C 32.529001 26.537603 32.162403 26.493535 31.427734 26.462891 C 31.176931 26.449988 30.899517 26.435547 30.589844 26.435547 z "
       transform="matrix(0.26458333,0,0,0.26458333,125.31061,135.89331)"
       id="rect6509" />
    <g
       id="g4735"
       transform="matrix(0.02667137,0,0,0.02667137,129.27944,139.86214)">
      <path
         id="path4665"
         d="m 248.08,0 h -0.152 V 0 C 111.216,0 0,111.224 0,247.992 0,302.224 17.504,352.52 47.224,393.352 l -30.888,92.152 95.312,-30.472 C 150.848,480.984 197.648,496 248.08,496 384.8,496 496,384.752 496,248 496,111.232 384.8,0 248.08,0 Z m 144.288,350.2 c -5.96,16.904 -29.728,30.904 -48.672,35 -12.976,2.76 -29.88,4.952 -86.864,-18.672 -72.888,-30.176 -119.824,-104.24 -123.464,-109.064 -3.504,-4.808 -29.448,-39.216 -29.448,-74.792 0,-35.576 18.072,-52.928 25.368,-60.368 5.976,-6.12 15.888,-8.872 25.36,-8.872 3.072,0 5.824,0.144 8.312,0.272 7.288,0.304 10.928,0.752 15.736,12.256 5.976,14.424 20.552,50.008 22.304,53.648 1.744,3.648 3.504,8.6 1.016,13.408 -2.336,4.96 -4.368,7.168 -8.008,11.384 -3.656,4.216 -7.16,7.44 -10.792,11.952 -3.352,3.936 -7.152,8.168 -2.912,15.456 4.232,7.16 18.8,30.912 40.224,50 27.688,24.64 50.136,32.52 58.16,35.872 5.968,2.488 13.12,1.888 17.496,-2.768 5.536,-5.984 12.392,-15.888 19.384,-25.656 4.952,-7.016 11.224,-7.88 17.776,-5.408 6.712,2.328 42.144,19.832 49.432,23.48 7.272,3.648 12.088,5.392 13.832,8.456 1.744,3.08 1.744,17.504 -4.24,34.416 z"
         style="fill:#6dbc61;fill-opacity:1"
         inkscape:connector-curvature="0" />
      <g
         id="g4673">
        <path
           id="path4669"
           d="m 327.368,13.08 c 63.232,54.056 104.504,136.68 104.504,206.632 0,38.528 -12.552,74.576 -34.352,105.544 -0.288,6.392 -1.704,15.216 -5.16,24.944 -5.96,16.904 -29.728,30.904 -48.672,35 -3.504,0.744 -7.336,1.432 -12.128,1.584 -41.504,25.88 -92.944,41.2 -148.664,41.2 -50.176,0 -96.856,-12.456 -135.96,-33.832 l -30.6,91.352 95.312,-30.472 C 150.848,480.984 197.648,496 248.08,496 384.8,496 496,384.752 496,248 496,138.976 425.296,46.24 327.368,13.08 Z"
           style="fill:#549b45"
           inkscape:connector-curvature="0" />
      </g>
      <path
         id="path4675"
         d="m 103.936,182.896 -1.632,1.64 1.784,1.776 c -0.064,-1.136 -0.152,-2.272 -0.152,-3.416 z"
         style="fill:#5caa4f"
         inkscape:connector-curvature="0" />
      <g
         id="g4677" />
      <g
         id="g4679" />
      <g
         id="g4681" />
      <g
         id="g4683" />
      <g
         id="g4685" />
      <g
         id="g4687" />
      <g
         id="g4689" />
      <g
         id="g4691" />
      <g
         id="g4693" />
      <g
         id="g4695" />
      <g
         id="g4697" />
      <g
         id="g4699" />
      <g
         id="g4701" />
      <g
         id="g4703" />
      <g
         id="g4705" />
    </g>
    <g
       transform="matrix(0.02667137,0,0,0.02667137,129.27944,139.86214)"
       id="g6331"
       style="fill:#ff00ff">
      <g
         id="g6297"
         style="fill:#ff00ff" />
      <g
         id="g6301"
         style="fill:#ff00ff" />
      <g
         id="g6303"
         style="fill:#ff00ff" />
      <g
         id="g6305"
         style="fill:#ff00ff" />
      <g
         id="g6307"
         style="fill:#ff00ff" />
      <g
         id="g6309"
         style="fill:#ff00ff" />
      <g
         id="g6311"
         style="fill:#ff00ff" />
      <g
         id="g6313"
         style="fill:#ff00ff" />
      <g
         id="g6315"
         style="fill:#ff00ff" />
      <g
         id="g6317"
         style="fill:#ff00ff" />
      <g
         id="g6319"
         style="fill:#ff00ff" />
      <g
         id="g6321"
         style="fill:#ff00ff" />
      <g
         id="g6323"
         style="fill:#ff00ff" />
      <g
         id="g6325"
         style="fill:#ff00ff" />
      <g
         id="g6327"
         style="fill:#ff00ff" />
      <g
         id="g6329"
         style="fill:#ff00ff" />
    </g>
  </g>
</svg>
