<?xml version="1.0" encoding="UTF-8" standalone="no"?>
<!-- Created with Inkscape (http://www.inkscape.org/) -->

<svg
   xmlns:dc="http://purl.org/dc/elements/1.1/"
   xmlns:cc="http://creativecommons.org/ns#"
   xmlns:rdf="http://www.w3.org/1999/02/22-rdf-syntax-ns#"
   xmlns:svg="http://www.w3.org/2000/svg"
   xmlns="http://www.w3.org/2000/svg"
   xmlns:sodipodi="http://sodipodi.sourceforge.net/DTD/sodipodi-0.dtd"
   xmlns:inkscape="http://www.inkscape.org/namespaces/inkscape"
   width="21.166666mm"
   height="21.166666mm"
   viewBox="0 0 21.166666 21.166666"
   version="1.1"
   id="svg7114"
   inkscape:version="0.92.0 r15299"
   sodipodi:docname="whatsapp-lite.svg">
  <defs
     id="defs7108" />
  <sodipodi:namedview
     id="base"
     pagecolor="#ffffff"
     bordercolor="#666666"
     borderopacity="1.0"
     inkscape:pageopacity="0.0"
     inkscape:pageshadow="2"
     inkscape:zoom="2.8284271"
     inkscape:cx="-88.252414"
     inkscape:cy="34.635589"
     inkscape:document-units="mm"
     inkscape:current-layer="layer1"
     showgrid="false"
     fit-margin-top="0"
     fit-margin-left="0"
     fit-margin-right="0"
     fit-margin-bottom="0"
     inkscape:window-width="1920"
     inkscape:window-height="1017"
     inkscape:window-x="-8"
     inkscape:window-y="-8"
     inkscape:window-maximized="1" />
  <metadata
     id="metadata7111">
    <rdf:RDF>
      <cc:Work
         rdf:about="">
        <dc:format>image/svg+xml</dc:format>
        <dc:type
           rdf:resource="http://purl.org/dc/dcmitype/StillImage" />
        <dc:title></dc:title>
      </cc:Work>
    </rdf:RDF>
  </metadata>
  <g
     inkscape:label="Layer 1"
     inkscape:groupmode="layer"
     id="layer1"
     transform="translate(-125.31061,-135.89331)">
    <rect
       style="opacity:1;vector-effect:none;fill:none;fill-opacity:1;stroke:none;stroke-width:4.29468584;stroke-linecap:square;stroke-linejoin:miter;stroke-miterlimit:4;stroke-dasharray:none;stroke-opacity:1;paint-order:normal"
       id="rect6340"
       width="21.166666"
       height="21.166666"
       x="125.31061"
       y="135.89331" />
    <g
       transform="matrix(0.02583789,0,0,0.02583789,129.27944,139.86214)"
       id="g7110">
      <path
         inkscape:connector-curvature="0"
         style="fill:#e5e5e5;fill-opacity:1"
         d="M 437.019,74.98 C 388.668,26.628 324.38,0 256,0 187.62,0 123.333,26.628 74.98,74.98 26.627,123.332 0,187.62 0,256 0,307.485 15.154,356.938 43.874,399.34 L 0.69,500.106 c -1.343,3.134 -0.607,6.966 1.798,9.381 2.495,2.506 6.519,3.206 9.714,1.684 L 108.56,465.286 C 151.858,495.866 202.721,512 256,512 324.38,512 388.668,485.372 437.019,437.02 485.371,388.667 512,324.38 512,256 512,187.62 485.371,123.333 437.019,74.98 Z"
         id="path7070" />
      <path
         inkscape:connector-curvature="0"
         style="fill:#20a83e"
         d="m 392.391,342.641 -7.673,-41.561 c -0.635,-3.432 -3.295,-6.133 -6.718,-6.818 l -60.339,-12.067 c -2.802,-0.559 -5.691,0.317 -7.709,2.334 l -24.514,24.514 c -41.302,-18.507 -64.226,-41.478 -84.396,-84.555 l 24.435,-24.436 c 2.018,-2.017 2.893,-4.91 2.334,-7.708 l -12.068,-60.34 c -0.685,-3.423 -3.386,-6.084 -6.819,-6.718 l -41.561,-7.673 c -1.138,-0.21 -2.31,-0.187 -3.44,0.07 -10.974,2.494 -20.987,8.023 -28.956,15.994 -13.801,13.801 -19.075,33.938 -15.252,58.237 6.418,40.801 26.409,97.583 63.289,134.61 l 0.502,0.5 c 37.001,36.855 93.782,56.846 134.583,63.265 5.14,0.809 10.092,1.21 14.838,1.21 17.694,0 32.517,-5.581 43.4,-16.462 7.97,-7.971 13.5,-17.984 15.993,-28.957 0.258,-1.129 0.282,-2.3 0.071,-3.439 z"
         id="path7076" />
      <path
         inkscape:connector-curvature="0"
         style="fill:#189433"
         d="m 349.996,376.428 c -4.747,0 -9.698,-0.401 -14.838,-1.21 -40.801,-6.419 -97.583,-26.41 -134.583,-63.265 l -0.502,-0.5 c -36.88,-37.027 -56.87,-93.809 -63.289,-134.61 -3.323,-21.118 0.236,-39.088 10.283,-52.492 -4.388,2.565 -8.458,5.689 -12.097,9.328 -13.801,13.801 -19.075,33.938 -15.252,58.237 6.418,40.801 26.409,97.583 63.289,134.61 l 0.502,0.5 c 37.001,36.855 93.782,56.846 134.583,63.265 5.14,0.809 10.092,1.21 14.838,1.21 17.694,0 32.517,-5.581 43.4,-16.462 1.974,-1.974 3.797,-4.075 5.463,-6.284 -9.046,5.081 -19.756,7.673 -31.797,7.673 z"
         id="path7078" />
      <g
         id="g7080" />
      <g
         id="g7082" />
      <g
         id="g7084" />
      <g
         id="g7086" />
      <g
         id="g7088" />
      <g
         id="g7090" />
      <g
         id="g7092" />
      <g
         id="g7094" />
      <g
         id="g7096" />
      <g
         id="g7098" />
      <g
         id="g7100" />
      <g
         id="g7102" />
      <g
         id="g7104" />
      <g
         id="g7106" />
      <g
         id="g7108" />
      <path
         inkscape:connector-curvature="0"
         style="fill:#cccccc;fill-opacity:1;stroke-width:0.09765502"
         d="m -132.00977,-34.160156 c -6.67765,0 -12.95582,2.60045 -17.67773,7.322265 -4.72191,4.721816 -7.32227,11.000085 -7.32227,17.6777348 0,5.0277685 1.47856,9.85727878 4.28321,13.9980468 l -4.2168,9.8398434 c -0.13115,0.306051 -0.0591,0.680179 0.17578,0.916016 0.24365,0.244723 0.63721,0.312693 0.94922,0.164062 l 2.63477,-1.255859 3.5,-8.1640624 c -2.80466,-4.1407679 -4.28321,-8.9702785 -4.28321,-13.9980468 0,-6.6776498 2.60036,-12.9559198 7.32227,-17.6777348 4.72191,-4.721815 10.99813,-7.322265 17.67578,-7.322265 3.30297,0 6.50707,0.63904 9.47461,1.853515 -3.76325,-2.184148 -8.04838,-3.353515 -12.51563,-3.353515 z"
         transform="matrix(10.240129,0,0,10.240129,1607.8068,349.80875)"
         id="path7130" />
    </g>
  </g>
</svg>
