<?xml version="1.0" encoding="UTF-8" standalone="no"?>
<!-- Created with Inkscape (http://www.inkscape.org/) -->

<svg
   xmlns:dc="http://purl.org/dc/elements/1.1/"
   xmlns:cc="http://creativecommons.org/ns#"
   xmlns:rdf="http://www.w3.org/1999/02/22-rdf-syntax-ns#"
   xmlns:svg="http://www.w3.org/2000/svg"
   xmlns="http://www.w3.org/2000/svg"
   xmlns:sodipodi="http://sodipodi.sourceforge.net/DTD/sodipodi-0.dtd"
   xmlns:inkscape="http://www.inkscape.org/namespaces/inkscape"
   width="21.166666mm"
   height="21.166666mm"
   viewBox="0 0 21.166666 21.166666"
   version="1.1"
   id="svg7114"
   inkscape:version="0.92.0 r15299"
   sodipodi:docname="whatsapp-rounded.svg">
  <defs
     id="defs7108" />
  <sodipodi:namedview
     id="base"
     pagecolor="#ffffff"
     bordercolor="#666666"
     borderopacity="1.0"
     inkscape:pageopacity="0.0"
     inkscape:pageshadow="2"
     inkscape:zoom="2.8284271"
     inkscape:cx="-153.71636"
     inkscape:cy="34.635589"
     inkscape:document-units="mm"
     inkscape:current-layer="layer1"
     showgrid="false"
     fit-margin-top="0"
     fit-margin-left="0"
     fit-margin-right="0"
     fit-margin-bottom="0"
     inkscape:window-width="1920"
     inkscape:window-height="1017"
     inkscape:window-x="-8"
     inkscape:window-y="-8"
     inkscape:window-maximized="1" />
  <metadata
     id="metadata7111">
    <rdf:RDF>
      <cc:Work
         rdf:about="">
        <dc:format>image/svg+xml</dc:format>
        <dc:type
           rdf:resource="http://purl.org/dc/dcmitype/StillImage" />
        <dc:title></dc:title>
      </cc:Work>
    </rdf:RDF>
  </metadata>
  <g
     inkscape:label="Layer 1"
     inkscape:groupmode="layer"
     id="layer1"
     transform="translate(-125.31061,-135.89331)">
    <rect
       style="opacity:1;vector-effect:none;fill:none;fill-opacity:1;stroke:none;stroke-width:4.29468584;stroke-linecap:square;stroke-linejoin:miter;stroke-miterlimit:4;stroke-dasharray:none;stroke-opacity:1;paint-order:normal"
       id="rect6340"
       width="21.166666"
       height="21.166666"
       x="125.31061"
       y="135.89331" />
    <g
       id="g7068"
       transform="matrix(0.02583789,0,0,0.02583789,129.27944,139.86214)">
      <circle
         id="circle7001"
         r="256"
         cy="256"
         cx="256"
         style="fill:#91dd5a" />
      <path
         id="path7003"
         d="M 256,0 C 244.683,0 233.539,0.744 222.609,2.167 348.216,18.53 445.217,125.933 445.217,256 c 0,130.067 -97.002,237.47 -222.609,253.833 C 233.539,511.256 244.683,512 256,512 397.385,512 512,397.384 512,256 512,114.616 397.385,0 256,0 Z"
         style="fill:#7ed63f"
         inkscape:connector-curvature="0" />
      <path
         id="path7005"
         d="m 256,434.643 c -43,0 -84.443,-15.458 -116.895,-43.568 -0.707,-0.612 -1.607,-0.954 -2.543,-0.954 H 82.853 c -2.759,0 -4.647,-2.787 -3.622,-5.349 l 17.755,-44.39 c 0.419,-1.045 0.356,-2.216 -0.156,-3.218 C 84.086,312.204 77.356,284.184 77.356,256 c 0,-98.968 80.896,-179.398 180.037,-178.638 97.168,0.745 176.5,80.077 177.244,177.244 0.761,99.141 -79.669,180.037 -178.637,180.037 z"
         style="fill:#ffffff"
         inkscape:connector-curvature="0" />
      <path
         id="path7007"
         d="m 256,401.252 c -35.349,0 -69.415,-12.853 -95.922,-36.192 l -6.714,-5.91 c -1.771,-1.559 -4.049,-2.419 -6.408,-2.419 H 130.89 c -2.146,0 -3.613,-2.167 -2.816,-4.159 l 4.624,-11.558 c 1.052,-2.63 0.902,-5.589 -0.413,-8.099 l -5.058,-9.662 C 116.446,302.655 110.747,279.4 110.747,256 c 0,-80.092 65.159,-145.251 145.25,-145.252 80.099,-0.001 145.254,65.155 145.254,145.254 0,80.092 -65.159,145.25 -145.251,145.25 z"
         style="fill:#7ed63f"
         inkscape:connector-curvature="0" />
      <path
         id="path7009"
         d="m 301.441,358.345 c -5.258,0 -10.3,-1.629 -14.584,-4.712 -49.582,-35.676 -92.812,-78.907 -128.491,-128.492 -7.202,-10.01 -6.059,-23.643 2.715,-32.418 l 35.886,-35.885 c 7.141,-7.141 18.719,-7.141 25.859,0 l 22.15,22.15 c 7.141,7.141 7.141,18.719 0,25.859 l -6.093,6.093 c -2.98,2.98 -3.869,7.459 -2.285,11.364 10.18,25.101 27.997,42.918 53.098,53.098 3.906,1.584 8.383,0.695 11.364,-2.285 l 6.093,-6.093 c 7.141,-7.141 18.719,-7.141 25.86,0 l 22.15,22.15 c 7.141,7.141 7.141,18.719 0,25.86 l -35.885,35.885 c -4.79,4.789 -11.124,7.426 -17.837,7.426 z"
         style="fill:#ffffff"
         inkscape:connector-curvature="0" />
      <g
         id="g7011">
</g>
      <g
         id="g7013">
</g>
      <g
         id="g7015">
</g>
      <g
         id="g7017">
</g>
      <g
         id="g7019">
</g>
      <g
         id="g7021">
</g>
      <g
         id="g7023">
</g>
      <g
         id="g7025">
</g>
      <g
         id="g7027">
</g>
      <g
         id="g7029">
</g>
      <g
         id="g7031">
</g>
      <g
         id="g7033">
</g>
      <g
         id="g7035">
</g>
      <g
         id="g7037">
</g>
      <g
         id="g7039">
</g>
    </g>
  </g>
</svg>
